<svg width="56" height="15" viewBox="0 0 56 15" fill="none" xmlns="http://www.w3.org/2000/svg">
<path d="M0.27401 14.2307L6.03401 1.63071H7.34801L13.108 14.2307H11.704L6.41201 2.40471H6.95201L1.66001 14.2307H0.27401ZM2.54201 10.8647L2.93801 9.78471H10.264L10.66 10.8647H2.54201ZM19.8004 14.3207C18.9724 14.3207 18.2284 14.1347 17.5684 13.7627C16.9084 13.3787 16.3864 12.8267 16.0024 12.1067C15.6184 11.3867 15.4264 10.5167 15.4264 9.49671C15.4264 8.46471 15.6184 7.59471 16.0024 6.88671C16.3984 6.16671 16.9264 5.62071 17.5864 5.24871C18.2464 4.87671 18.9844 4.69071 19.8004 4.69071C20.7004 4.69071 21.5044 4.89471 22.2124 5.30271C22.9324 5.69871 23.4964 6.25671 23.9044 6.97671C24.3124 7.69671 24.5164 8.53671 24.5164 9.49671C24.5164 10.4447 24.3124 11.2847 23.9044 12.0167C23.4964 12.7367 22.9324 13.3007 22.2124 13.7087C21.5044 14.1167 20.7004 14.3207 19.8004 14.3207ZM14.9224 14.2307V0.874712H16.2004V7.57071L16.0204 9.47871L16.1464 11.3867V14.2307H14.9224ZM19.7104 13.1867C20.3824 13.1867 20.9824 13.0367 21.5104 12.7367C22.0384 12.4247 22.4584 11.9927 22.7704 11.4407C23.0824 10.8767 23.2384 10.2287 23.2384 9.49671C23.2384 8.75271 23.0824 8.10471 22.7704 7.55271C22.4584 7.00071 22.0384 6.57471 21.5104 6.27471C20.9824 5.96271 20.3824 5.80671 19.7104 5.80671C19.0384 5.80671 18.4324 5.96271 17.8924 6.27471C17.3644 6.57471 16.9444 7.00071 16.6324 7.55271C16.3324 8.10471 16.1824 8.75271 16.1824 9.49671C16.1824 10.2287 16.3324 10.8767 16.6324 11.4407C16.9444 11.9927 17.3644 12.4247 17.8924 12.7367C18.4324 13.0367 19.0384 13.1867 19.7104 13.1867ZM30.9736 14.3207C30.0616 14.3207 29.2396 14.1167 28.5076 13.7087C27.7876 13.2887 27.2176 12.7187 26.7976 11.9987C26.3776 11.2667 26.1676 10.4327 26.1676 9.49671C26.1676 8.54871 26.3776 7.71471 26.7976 6.99471C27.2176 6.27471 27.7876 5.71071 28.5076 5.30271C29.2276 4.89471 30.0496 4.69071 30.9736 4.69071C31.9096 4.69071 32.7376 4.89471 33.4576 5.30271C34.1896 5.71071 34.7596 6.27471 35.1676 6.99471C35.5876 7.71471 35.7976 8.54871 35.7976 9.49671C35.7976 10.4327 35.5876 11.2667 35.1676 11.9987C34.7596 12.7187 34.1896 13.2887 33.4576 13.7087C32.7256 14.1167 31.8976 14.3207 30.9736 14.3207ZM30.9736 13.1867C31.6576 13.1867 32.2636 13.0367 32.7916 12.7367C33.3196 12.4247 33.7336 11.9927 34.0336 11.4407C34.3456 10.8767 34.5016 10.2287 34.5016 9.49671C34.5016 8.75271 34.3456 8.10471 34.0336 7.55271C33.7336 7.00071 33.3196 6.57471 32.7916 6.27471C32.2636 5.96271 31.6636 5.80671 30.9916 5.80671C30.3196 5.80671 29.7196 5.96271 29.1916 6.27471C28.6636 6.57471 28.2436 7.00071 27.9316 7.55271C27.6196 8.10471 27.4636 8.75271 27.4636 9.49671C27.4636 10.2287 27.6196 10.8767 27.9316 11.4407C28.2436 11.9927 28.6636 12.4247 29.1916 12.7367C29.7196 13.0367 30.3136 13.1867 30.9736 13.1867ZM42.3127 14.3207C41.5087 14.3207 40.8067 14.1707 40.2067 13.8707C39.6067 13.5707 39.1387 13.1207 38.8027 12.5207C38.4787 11.9207 38.3167 11.1707 38.3167 10.2707V4.78071H39.5947V10.1267C39.5947 11.1347 39.8407 11.8967 40.3327 12.4127C40.8367 12.9167 41.5387 13.1687 42.4387 13.1687C43.0987 13.1687 43.6687 13.0367 44.1487 12.7727C44.6407 12.4967 45.0127 12.1007 45.2647 11.5847C45.5287 11.0687 45.6607 10.4507 45.6607 9.73071V4.78071H46.9387V14.2307H45.7147V11.6387L45.9127 12.1067C45.6127 12.8027 45.1447 13.3487 44.5087 13.7447C43.8847 14.1287 43.1527 14.3207 42.3127 14.3207ZM53.4885 14.3207C52.6005 14.3207 51.9165 14.0807 51.4365 13.6007C50.9565 13.1207 50.7165 12.4427 50.7165 11.5667V2.69271H51.9945V11.4947C51.9945 12.0467 52.1325 12.4727 52.4085 12.7727C52.6965 13.0727 53.1045 13.2227 53.6325 13.2227C54.1965 13.2227 54.6645 13.0607 55.0365 12.7367L55.4865 13.6547C55.2345 13.8827 54.9285 14.0507 54.5685 14.1587C54.2205 14.2667 53.8605 14.3207 53.4885 14.3207ZM49.0245 5.84271V4.78071H54.8745V5.84271H49.0245Z" fill="#69BDAE"/>
</svg>
