<svg width="56" height="15" viewBox="0 0 56 15" fill="none" xmlns="http://www.w3.org/2000/svg">
<path d="M0.540459 14L6.30046 1.4H7.61446L13.3745 14H11.9705L6.67846 2.174H7.21846L1.92646 14H0.540459ZM2.80846 10.634L3.20446 9.554H10.5305L10.9265 10.634H2.80846ZM20.0668 14.09C19.2388 14.09 18.4948 13.904 17.8348 13.532C17.1748 13.148 16.6528 12.596 16.2688 11.876C15.8848 11.156 15.6928 10.286 15.6928 9.266C15.6928 8.234 15.8848 7.364 16.2688 6.656C16.6648 5.936 17.1928 5.39 17.8528 5.018C18.5128 4.646 19.2508 4.46 20.0668 4.46C20.9668 4.46 21.7708 4.664 22.4788 5.072C23.1988 5.468 23.7628 6.026 24.1708 6.746C24.5788 7.466 24.7828 8.306 24.7828 9.266C24.7828 10.214 24.5788 11.054 24.1708 11.786C23.7628 12.506 23.1988 13.07 22.4788 13.478C21.7708 13.886 20.9668 14.09 20.0668 14.09ZM15.1888 14V0.643999H16.4668V7.34L16.2868 9.248L16.4128 11.156V14H15.1888ZM19.9768 12.956C20.6488 12.956 21.2488 12.806 21.7768 12.506C22.3048 12.194 22.7248 11.762 23.0368 11.21C23.3488 10.646 23.5048 9.998 23.5048 9.266C23.5048 8.522 23.3488 7.874 23.0368 7.322C22.7248 6.77 22.3048 6.344 21.7768 6.044C21.2488 5.732 20.6488 5.576 19.9768 5.576C19.3048 5.576 18.6988 5.732 18.1588 6.044C17.6308 6.344 17.2108 6.77 16.8988 7.322C16.5988 7.874 16.4488 8.522 16.4488 9.266C16.4488 9.998 16.5988 10.646 16.8988 11.21C17.2108 11.762 17.6308 12.194 18.1588 12.506C18.6988 12.806 19.3048 12.956 19.9768 12.956ZM31.24 14.09C30.328 14.09 29.506 13.886 28.774 13.478C28.054 13.058 27.484 12.488 27.064 11.768C26.644 11.036 26.434 10.202 26.434 9.266C26.434 8.318 26.644 7.484 27.064 6.764C27.484 6.044 28.054 5.48 28.774 5.072C29.494 4.664 30.316 4.46 31.24 4.46C32.176 4.46 33.004 4.664 33.724 5.072C34.456 5.48 35.026 6.044 35.434 6.764C35.854 7.484 36.064 8.318 36.064 9.266C36.064 10.202 35.854 11.036 35.434 11.768C35.026 12.488 34.456 13.058 33.724 13.478C32.992 13.886 32.164 14.09 31.24 14.09ZM31.24 12.956C31.924 12.956 32.53 12.806 33.058 12.506C33.586 12.194 34 11.762 34.3 11.21C34.612 10.646 34.768 9.998 34.768 9.266C34.768 8.522 34.612 7.874 34.3 7.322C34 6.77 33.586 6.344 33.058 6.044C32.53 5.732 31.93 5.576 31.258 5.576C30.586 5.576 29.986 5.732 29.458 6.044C28.93 6.344 28.51 6.77 28.198 7.322C27.886 7.874 27.73 8.522 27.73 9.266C27.73 9.998 27.886 10.646 28.198 11.21C28.51 11.762 28.93 12.194 29.458 12.506C29.986 12.806 30.58 12.956 31.24 12.956ZM42.5792 14.09C41.7752 14.09 41.0732 13.94 40.4732 13.64C39.8732 13.34 39.4052 12.89 39.0692 12.29C38.7452 11.69 38.5832 10.94 38.5832 10.04V4.55H39.8612V9.896C39.8612 10.904 40.1072 11.666 40.5992 12.182C41.1032 12.686 41.8052 12.938 42.7052 12.938C43.3652 12.938 43.9352 12.806 44.4152 12.542C44.9072 12.266 45.2792 11.87 45.5312 11.354C45.7952 10.838 45.9272 10.22 45.9272 9.5V4.55H47.2052V14H45.9812V11.408L46.1792 11.876C45.8792 12.572 45.4112 13.118 44.7752 13.514C44.1512 13.898 43.4192 14.09 42.5792 14.09ZM53.7549 14.09C52.8669 14.09 52.1829 13.85 51.7029 13.37C51.2229 12.89 50.9829 12.212 50.9829 11.336V2.462H52.2609V11.264C52.2609 11.816 52.3989 12.242 52.6749 12.542C52.9629 12.842 53.3709 12.992 53.8989 12.992C54.4629 12.992 54.9309 12.83 55.3029 12.506L55.7529 13.424C55.5009 13.652 55.1949 13.82 54.8349 13.928C54.4869 14.036 54.1269 14.09 53.7549 14.09ZM49.2909 5.612V4.55H55.1409V5.612H49.2909Z" fill="#5B5858"/>
</svg>
