<svg width="51" height="51" viewBox="0 0 51 51" fill="none" xmlns="http://www.w3.org/2000/svg">
<path d="M20.7943 18.5789C19.8922 18.8112 18.9829 19.1191 18.0748 19.5147C16.5465 20.1804 15.5744 21.6535 15.2475 23.2882L12.9359 34.8465C12.1933 38.5592 15.0331 42.0232 18.8193 42.0232H32.0588C35.7162 42.0232 38.5228 38.7789 37.9963 35.1596L36.3005 23.501C36.0446 21.7417 35.0341 20.146 33.3807 19.4927C32.7316 19.2363 32.0174 18.9932 31.2498 18.7801M20.7943 18.5789C20.9234 15.9381 19.7488 10.0815 25.7975 9.49488C26.0519 9.4702 26.3323 9.45512 26.6289 9.44684C28.9723 9.38142 30.9625 10.932 31.1189 13.2712C31.2498 15.2286 31.2498 17.4061 31.2498 18.7801M20.7943 18.5789C24.6249 17.5922 28.3252 17.9681 31.2498 18.7801" stroke="#8F8F8F"/>
<circle cx="20.7943" cy="20.3377" r="0.774483" fill="#8F8F8F"/>
<circle cx="20.7943" cy="20.3377" r="0.774483" fill="#8F8F8F"/>
<circle cx="20.7943" cy="20.3377" r="0.774483" fill="#8F8F8F"/>
<circle cx="20.7943" cy="20.3377" r="0.774483" fill="#8F8F8F"/>
<circle cx="20.7943" cy="20.3377" r="0.774483" fill="#8F8F8F"/>
<circle cx="30.8626" cy="20.3377" r="0.774483" fill="#8F8F8F"/>
<circle cx="30.8626" cy="20.3377" r="0.774483" fill="#8F8F8F"/>
<circle cx="30.8626" cy="20.3377" r="0.774483" fill="#8F8F8F"/>
<circle cx="30.8626" cy="20.3377" r="0.774483" fill="#8F8F8F"/>
<circle cx="30.8626" cy="20.3377" r="0.774483" fill="#8F8F8F"/>
<circle cx="25.2476" cy="25.731" r="24.5" stroke="white"/>
</svg>
