<svg width="51" height="51" viewBox="0 0 51 51" fill="none" xmlns="http://www.w3.org/2000/svg">
<path d="M20.9233 18.571C20.0212 18.8034 19.1119 19.1113 18.2038 19.5069C16.6755 20.1726 15.7034 21.6457 15.3765 23.2804L13.0649 34.8387C12.3223 38.5514 15.1621 42.0154 18.9483 42.0154H32.1878C35.8452 42.0154 38.6518 38.7711 38.1253 35.1517L36.4295 23.4932C36.1736 21.7339 35.1631 20.1382 33.5097 19.4849C32.8606 19.2285 32.1464 18.9854 31.3788 18.7723M20.9233 18.571C21.0524 15.9303 19.8778 10.0737 25.9265 9.48707C26.1809 9.46239 26.4613 9.44731 26.7579 9.43903C29.1013 9.37361 31.0915 10.9242 31.2479 13.2633C31.3788 15.2208 31.3788 17.3982 31.3788 18.7723M20.9233 18.571C24.7539 17.5844 28.4542 17.9603 31.3788 18.7723" stroke="#69BDAE"/>
<circle cx="20.9233" cy="20.3299" r="0.774483" fill="#69BDAE"/>
<circle cx="20.9233" cy="20.3299" r="0.774483" fill="#69BDAE"/>
<circle cx="20.9233" cy="20.3299" r="0.774483" fill="#69BDAE"/>
<circle cx="20.9233" cy="20.3299" r="0.774483" fill="#69BDAE"/>
<circle cx="20.9233" cy="20.3299" r="0.774483" fill="#69BDAE"/>
<circle cx="30.9916" cy="20.3299" r="0.774483" fill="#69BDAE"/>
<circle cx="30.9916" cy="20.3299" r="0.774483" fill="#69BDAE"/>
<circle cx="30.9916" cy="20.3299" r="0.774483" fill="#69BDAE"/>
<circle cx="30.9916" cy="20.3299" r="0.774483" fill="#69BDAE"/>
<circle cx="30.9916" cy="20.3299" r="0.774483" fill="#69BDAE"/>
<circle cx="25.3766" cy="25.2959" r="24.5" stroke="white"/>
</svg>
