<svg width="61" height="61" viewBox="0 0 61 61" fill="none" xmlns="http://www.w3.org/2000/svg">
<rect x="0.365356" y="0.281738" width="60" height="60" fill="#FF5B5B"/>
<path d="M20.6313 43.7221V20.2847C20.6313 19.9117 20.329 19.6094 19.956 19.6094C19.5836 19.6094 19.2814 19.911 19.2807 20.2835L19.2364 45.0347C19.2344 46.1406 20.1304 47.0382 21.2364 47.0382H39.4978C40.6024 47.0382 41.4978 46.1428 41.4978 45.0382V20.2537C41.4978 19.8979 41.2093 19.6094 40.8534 19.6094C40.4975 19.6094 40.209 19.8979 40.209 20.2537V43.7221C40.209 44.8267 39.3136 45.7221 38.209 45.7221H22.6313C21.5268 45.7221 20.6313 44.8267 20.6313 43.7221Z" fill="white"/>
<path d="M36.1175 42.7382V21.9041C36.1175 21.5307 35.8148 21.228 35.4414 21.228C35.0681 21.228 34.7655 21.5306 34.7653 21.9039L34.7575 42.7379C34.7573 43.1136 35.0618 43.4182 35.4375 43.4182C35.8131 43.4182 36.1175 43.1138 36.1175 42.7382Z" fill="white"/>
<path d="M26.2208 42.7382V21.9041C26.2208 21.5307 25.9181 21.228 25.5447 21.228C25.1714 21.228 24.8688 21.5306 24.8686 21.9039L24.8607 42.7379C24.8606 43.1136 25.1651 43.4182 25.5408 43.4182C25.9163 43.4182 26.2208 43.1138 26.2208 42.7382Z" fill="white"/>
<path d="M42.9902 17.4019H17.7364C17.363 17.4019 17.0603 17.7046 17.0603 18.078C17.0603 18.4513 17.3629 18.7539 17.7362 18.754L42.99 18.762C43.3657 18.7621 43.6703 18.4576 43.6703 18.0819C43.6703 17.7064 43.3658 17.4019 42.9902 17.4019Z" fill="white"/>
<path d="M31.1692 42.7382V21.9041C31.1692 21.5307 30.8665 21.228 30.4931 21.228C30.1198 21.228 29.8171 21.5306 29.817 21.9039L29.8091 42.7379C29.809 43.1136 30.1135 43.4182 30.4891 43.4182C30.8647 43.4182 31.1692 43.1138 31.1692 42.7382Z" fill="white"/>
<path d="M25.8593 14.8149V17.4018H24.4663V14.5254C24.4663 13.9731 24.914 13.5254 25.4663 13.5254H35.2642C35.8165 13.5254 36.2642 13.9731 36.2642 14.5254V17.4018H34.9675V14.8149H25.8593Z" fill="white"/>
</svg>
