<svg width="61" height="61" viewBox="0 0 61 61" fill="none" xmlns="http://www.w3.org/2000/svg">
<rect x="0.973511" y="0.568848" width="60" height="60" fill="#FF0000"/>
<path d="M21.2395 44.0092V20.5718C21.2395 20.1988 20.9371 19.8965 20.5642 19.8965C20.1917 19.8965 19.8896 20.1981 19.8889 20.5706L19.8445 45.3218C19.8426 46.4277 20.7386 47.3253 21.8445 47.3253H40.1059C41.2105 47.3253 42.1059 46.4299 42.1059 45.3253V20.5409C42.1059 20.185 41.8174 19.8965 41.4616 19.8965C41.1057 19.8965 40.8172 20.185 40.8172 20.5409V44.0092C40.8172 45.1138 39.9218 46.0092 38.8172 46.0092H23.2395C22.1349 46.0092 21.2395 45.1138 21.2395 44.0092Z" fill="white"/>
<path d="M36.7257 43.0253V22.1912C36.7257 21.8178 36.423 21.5151 36.0496 21.5151C35.6763 21.5151 35.3736 21.8177 35.3735 22.191L35.3656 43.025C35.3655 43.4007 35.67 43.7053 36.0456 43.7053C36.4212 43.7053 36.7257 43.4009 36.7257 43.0253Z" fill="white"/>
<path d="M26.829 43.0253V22.1912C26.829 21.8178 26.5263 21.5151 26.1529 21.5151C25.7796 21.5151 25.4769 21.8177 25.4768 22.191L25.4689 43.025C25.4687 43.4007 25.7732 43.7053 26.1489 43.7053C26.5245 43.7053 26.829 43.4009 26.829 43.0253Z" fill="white"/>
<path d="M43.5984 17.689H18.3445C17.9711 17.689 17.6685 17.9917 17.6685 18.3651C17.6685 18.7384 17.971 19.041 18.3443 19.0411L43.5982 19.0491C43.9738 19.0492 44.2784 18.7447 44.2784 18.369C44.2784 17.9935 43.974 17.689 43.5984 17.689Z" fill="white"/>
<path d="M31.7773 43.0253V22.1912C31.7773 21.8178 31.4746 21.5151 31.1012 21.5151C30.7279 21.5151 30.4253 21.8177 30.4251 22.191L30.4172 43.025C30.4171 43.4007 30.7216 43.7053 31.0973 43.7053C31.4729 43.7053 31.7773 43.4009 31.7773 43.0253Z" fill="white"/>
<path d="M26.4675 15.102V17.6889H25.0745V14.8125C25.0745 14.2602 25.5222 13.8125 26.0745 13.8125H35.8724C36.4247 13.8125 36.8724 14.2602 36.8724 14.8125V17.6889H35.5756V15.102H26.4675Z" fill="white"/>
</svg>
