<svg width="283" height="78" viewBox="0 0 283 78" fill="none" xmlns="http://www.w3.org/2000/svg">
<rect width="283" height="78" fill="#FFFBF5"/>
<path d="M72.7691 18.5V56H65.3191L65.1691 52.4H65.0691C63.0358 55.1333 60.4358 56.5 57.2691 56.5C54.2358 56.5 51.7525 55.3167 49.8191 52.95C47.8858 50.55 46.9191 47.2333 46.9191 43C46.9191 38.6667 47.8525 35.3333 49.7191 33C51.5858 30.6667 54.1025 29.5 57.2691 29.5C60.2691 29.5 62.7358 30.7167 64.6691 33.15H64.7691V18.5H72.7691ZM54.5691 43C54.5691 45.3333 55.0358 47.15 55.9691 48.45C56.9358 49.7167 58.1691 50.35 59.6691 50.35C61.2025 50.35 62.4358 49.7333 63.3691 48.5C64.3025 47.2667 64.7691 45.5167 64.7691 43.25V42.75C64.7691 40.5167 64.3025 38.7833 63.3691 37.55C62.4358 36.2833 61.2025 35.65 59.6691 35.65C58.0691 35.65 56.8191 36.2667 55.9191 37.5C55.0191 38.7333 54.5691 40.5667 54.5691 43Z" fill="#FFFBF5"/>
<path d="M74.1203 30H81.7203L81.7703 35H81.8703C84.7703 31.3333 88.737 29.5 93.7703 29.5V35.9C90.037 35.9 87.187 36.7 85.2203 38.3C83.2536 39.9 82.2703 42.0833 82.2703 44.85V56H74.1203V30ZM101.038 40.7H111.338C111.305 36.8667 109.605 34.95 106.238 34.95C104.705 34.95 103.488 35.45 102.588 36.45C101.688 37.4167 101.171 38.8333 101.038 40.7ZM101.088 45.65C101.321 47.2833 102.005 48.5667 103.138 49.5C104.305 50.4 105.805 50.85 107.638 50.85C110.105 50.85 112.521 50.25 114.888 49.05L116.638 54.5C113.671 55.8333 110.421 56.5 106.888 56.5C102.755 56.5 99.4212 55.2833 96.8879 52.85C94.3879 50.4167 93.1379 47.1333 93.1379 43C93.1379 38.8333 94.3046 35.55 96.6379 33.15C98.9712 30.7167 102.105 29.5 106.038 29.5C110.071 29.5 113.205 30.6667 115.438 33C117.671 35.3 118.788 38.6 118.788 42.9C118.788 43.9333 118.721 44.85 118.588 45.65H101.088ZM132.642 29.5C136.808 29.5 139.775 30.3 141.542 31.9C143.342 33.4667 144.242 36.05 144.242 39.65V49C144.242 51.4 144.492 53.7333 144.992 56H137.392C137.125 54.5 136.958 53.2833 136.892 52.35H136.792C135.892 53.6167 134.675 54.6333 133.142 55.4C131.642 56.1333 130.058 56.5 128.392 56.5C125.892 56.5 123.892 55.8 122.392 54.4C120.892 53 120.142 51.0833 120.142 48.65C120.142 45.7833 121.358 43.4833 123.792 41.75C126.258 40.0167 129.792 39.15 134.392 39.15H136.242V39.05C136.242 37.5833 135.942 36.5667 135.342 36C134.775 35.4333 133.758 35.15 132.292 35.15C128.892 35.15 125.642 35.9 122.542 37.4L121.492 31.75C124.858 30.25 128.575 29.5 132.642 29.5ZM127.442 47.9C127.442 48.8 127.708 49.5 128.242 50C128.808 50.5 129.558 50.75 130.492 50.75C132.158 50.75 133.525 50.2333 134.592 49.2C135.692 48.1667 136.242 46.85 136.242 45.25V44.05H134.392C132.125 44.05 130.392 44.4 129.192 45.1C128.025 45.8 127.442 46.7333 127.442 47.9ZM145.579 30H152.829L152.979 33.5H153.079C155.013 30.8333 157.296 29.5 159.929 29.5C161.529 29.5 162.829 29.8 163.829 30.4C164.829 31 165.729 32.0333 166.529 33.5H166.629C168.963 30.8333 171.579 29.5 174.479 29.5C177.313 29.5 179.363 30.2833 180.629 31.85C181.929 33.4167 182.579 36.0833 182.579 39.85V56H174.879V41.35C174.879 39.0167 174.646 37.4667 174.179 36.7C173.746 35.9333 172.929 35.55 171.729 35.55C170.696 35.55 169.813 36.1 169.079 37.2C168.346 38.2667 167.979 39.65 167.979 41.35V56H160.279V41.35C160.279 39.0167 160.063 37.4667 159.629 36.7C159.196 35.9333 158.379 35.55 157.179 35.55C156.146 35.55 155.263 36.1 154.529 37.2C153.796 38.2667 153.429 39.65 153.429 41.35V56H145.579V30Z" fill="#020202"/>
<path d="M187.239 33.15C189.605 30.7167 192.872 29.5 197.039 29.5C201.205 29.5 204.455 30.7167 206.789 33.15C209.155 35.55 210.339 38.8333 210.339 43C210.339 47.1667 209.155 50.4667 206.789 52.9C204.455 55.3 201.205 56.5 197.039 56.5C192.872 56.5 189.605 55.3 187.239 52.9C184.872 50.4667 183.689 47.1667 183.689 43C183.689 38.8333 184.872 35.55 187.239 33.15ZM197.039 50.65C200.639 50.65 202.439 48.1 202.439 43C202.439 37.9 200.639 35.35 197.039 35.35C193.405 35.35 191.589 37.9 191.589 43C191.589 48.1 193.405 50.65 197.039 50.65ZM211.175 30H218.575L218.775 33.6H218.875C219.842 32.3333 221.025 31.3333 222.425 30.6C223.858 29.8667 225.325 29.5 226.825 29.5C229.958 29.5 232.242 30.4167 233.675 32.25C235.108 34.0833 235.825 37.2167 235.825 41.65V56H227.925V42.5C227.925 39.8 227.642 38 227.075 37.1C226.508 36.1667 225.508 35.7 224.075 35.7C222.842 35.7 221.708 36.3667 220.675 37.7C219.675 39.0333 219.175 40.5833 219.175 42.35V56H211.175V30Z" fill="#69BDAE"/>
<path d="M81 54C82.2 52.8 82.5 50.8333 82.5 50H83V54.5H81V54Z" fill="#FFFBF5"/>
<path d="M143.086 52.9922C143.838 52.8557 144.5 52 144.5 50H145V53V53.5H143V53C143.029 53 143.058 52.9973 143.086 52.9922Z" fill="#FFFBF5"/>
<path d="M152.086 52.9922C152.838 52.8557 153.5 52 153.5 50H154V53V53.5H152V53C152 53 152.058 52.9973 152.086 52.9922Z" fill="#FFFBF5"/>
<path d="M167.086 53.9922C167.838 53.8557 168.5 53 168.5 51H169V54L167.086 53.9922Z" fill="#FFFBF5"/>
<path d="M57.3404 58.4C54.8071 58.4 52.5238 57.8333 50.4904 56.7C48.4571 55.5333 46.8404 53.9167 45.6404 51.85C44.4738 49.7833 43.8904 47.35 43.8904 44.55C43.8904 41.7167 44.4738 39.2667 45.6404 37.2C46.8404 35.1333 48.4571 33.5333 50.4904 32.4C52.5238 31.2667 54.8071 30.7 57.3404 30.7C59.6071 30.7 61.5904 31.2 63.2904 32.2C64.9904 33.2 66.3071 34.7167 67.2404 36.75C68.1738 38.7833 68.6404 41.3833 68.6404 44.55C68.6404 47.6833 68.1904 50.2833 67.2904 52.35C66.3904 54.3833 65.0904 55.9 63.3904 56.9C61.7238 57.9 59.7071 58.4 57.3404 58.4ZM58.6904 52C59.9571 52 61.1071 51.7 62.1404 51.1C63.1738 50.5 63.9904 49.65 64.5904 48.55C65.2238 47.4167 65.5404 46.0833 65.5404 44.55C65.5404 42.9833 65.2238 41.65 64.5904 40.55C63.9904 39.45 63.1738 38.6 62.1404 38C61.1071 37.4 59.9571 37.1 58.6904 37.1C57.3904 37.1 56.2238 37.4 55.1904 38C54.1571 38.6 53.3238 39.45 52.6904 40.55C52.0904 41.65 51.7904 42.9833 51.7904 44.55C51.7904 46.0833 52.0904 47.4167 52.6904 48.55C53.3238 49.65 54.1571 50.5 55.1904 51.1C56.2238 51.7 57.3904 52 58.6904 52ZM65.7404 58V52.5L65.8904 44.5L65.3904 36.55V20.9H73.1904V58H65.7404Z" fill="#020202"/>
<path d="M114 46.3333C117.84 45.8 119 42.3333 119 41H120V47H114V46.3333Z" fill="#FFFBF5"/>
<ellipse cx="141.5" cy="62" rx="129.5" ry="9" fill="#FFFBF5"/>
<path d="M71 54.5C73.4 53.7 73.6667 50.5 73.5 49H74V55H73.5H71V54.5Z" fill="#FFFBF5"/>
<path d="M41.352 57.8557C126.542 53.2737 158.004 53.2698 245.611 57.8287C179.298 55.3235 112.986 55.1073 41.352 57.8557Z" fill="#69BDAE"/>
<path d="M166 53.5C167.5 53 168 52.5 168 51H168.5V54H166V53.5Z" fill="#FFFBF5"/>
<path d="M182.649 50.9776L183.246 50.9177L183.843 50.8578L184.142 53.8428L181.157 54.1422L181.097 53.5452C182.482 52.9239 182.709 51.5746 182.649 50.9776Z" fill="#FFFBF5"/>
</svg>
