<svg width="277" height="82" viewBox="0 0 277 82" fill="none" xmlns="http://www.w3.org/2000/svg">
<g clip-path="url(#clip0_17_340)">
<rect width="277" height="82" fill="white"/>
<path d="M74.7773 17.5V55H67.3273L67.1773 51.4H67.0773C65.0439 54.1333 62.4439 55.5 59.2773 55.5C56.2439 55.5 53.7606 54.3167 51.8273 51.95C49.8939 49.55 48.9273 46.2333 48.9273 42C48.9273 37.6667 49.8606 34.3333 51.7273 32C53.5939 29.6667 56.1106 28.5 59.2773 28.5C62.2773 28.5 64.7439 29.7167 66.6773 32.15H66.7773V17.5H74.7773ZM56.5773 42C56.5773 44.3333 57.0439 46.15 57.9773 47.45C58.9439 48.7167 60.1773 49.35 61.6773 49.35C63.2106 49.35 64.4439 48.7333 65.3773 47.5C66.3106 46.2667 66.7773 44.5167 66.7773 42.25V41.75C66.7773 39.5167 66.3106 37.7833 65.3773 36.55C64.4439 35.2833 63.2106 34.65 61.6773 34.65C60.0773 34.65 58.8273 35.2667 57.9273 36.5C57.0273 37.7333 56.5773 39.5667 56.5773 42Z" fill="#FFFBF5"/>
<path d="M76.1284 29H83.7284L83.7784 34H83.8784C86.7784 30.3333 90.7451 28.5 95.7784 28.5V34.9C92.0451 34.9 89.1951 35.7 87.2284 37.3C85.2618 38.9 84.2784 41.0833 84.2784 43.85V55H76.1284V29ZM103.046 39.7H113.346C113.313 35.8667 111.613 33.95 108.246 33.95C106.713 33.95 105.496 34.45 104.596 35.45C103.696 36.4167 103.179 37.8333 103.046 39.7ZM103.096 44.65C103.329 46.2833 104.013 47.5667 105.146 48.5C106.313 49.4 107.813 49.85 109.646 49.85C112.113 49.85 114.529 49.25 116.896 48.05L118.646 53.5C115.679 54.8333 112.429 55.5 108.896 55.5C104.763 55.5 101.429 54.2833 98.896 51.85C96.396 49.4167 95.146 46.1333 95.146 42C95.146 37.8333 96.3127 34.55 98.646 32.15C100.979 29.7167 104.113 28.5 108.046 28.5C112.079 28.5 115.213 29.6667 117.446 32C119.679 34.3 120.796 37.6 120.796 41.9C120.796 42.9333 120.729 43.85 120.596 44.65H103.096ZM134.65 28.5C138.817 28.5 141.783 29.3 143.55 30.9C145.35 32.4667 146.25 35.05 146.25 38.65V48C146.25 50.4 146.5 52.7333 147 55H139.4C139.133 53.5 138.967 52.2833 138.9 51.35H138.8C137.9 52.6167 136.683 53.6333 135.15 54.4C133.65 55.1333 132.067 55.5 130.4 55.5C127.9 55.5 125.9 54.8 124.4 53.4C122.9 52 122.15 50.0833 122.15 47.65C122.15 44.7833 123.367 42.4833 125.8 40.75C128.267 39.0167 131.8 38.15 136.4 38.15H138.25V38.05C138.25 36.5833 137.95 35.5667 137.35 35C136.783 34.4333 135.767 34.15 134.3 34.15C130.9 34.15 127.65 34.9 124.55 36.4L123.5 30.75C126.867 29.25 130.583 28.5 134.65 28.5ZM129.45 46.9C129.45 47.8 129.717 48.5 130.25 49C130.817 49.5 131.567 49.75 132.5 49.75C134.167 49.75 135.533 49.2333 136.6 48.2C137.7 47.1667 138.25 45.85 138.25 44.25V43.05H136.4C134.133 43.05 132.4 43.4 131.2 44.1C130.033 44.8 129.45 45.7333 129.45 46.9ZM147.587 29H154.837L154.987 32.5H155.087C157.021 29.8333 159.304 28.5 161.937 28.5C163.537 28.5 164.837 28.8 165.837 29.4C166.837 30 167.737 31.0333 168.537 32.5H168.637C170.971 29.8333 173.587 28.5 176.487 28.5C179.321 28.5 181.371 29.2833 182.637 30.85C183.937 32.4167 184.587 35.0833 184.587 38.85V55H176.887V40.35C176.887 38.0167 176.654 36.4667 176.187 35.7C175.754 34.9333 174.937 34.55 173.737 34.55C172.704 34.55 171.821 35.1 171.087 36.2C170.354 37.2667 169.987 38.65 169.987 40.35V55H162.287V40.35C162.287 38.0167 162.071 36.4667 161.637 35.7C161.204 34.9333 160.387 34.55 159.187 34.55C158.154 34.55 157.271 35.1 156.537 36.2C155.804 37.2667 155.437 38.65 155.437 40.35V55H147.587V29Z" fill="#020202"/>
<path d="M189.247 32.15C191.613 29.7167 194.88 28.5 199.047 28.5C203.213 28.5 206.463 29.7167 208.797 32.15C211.163 34.55 212.347 37.8333 212.347 42C212.347 46.1667 211.163 49.4667 208.797 51.9C206.463 54.3 203.213 55.5 199.047 55.5C194.88 55.5 191.613 54.3 189.247 51.9C186.88 49.4667 185.697 46.1667 185.697 42C185.697 37.8333 186.88 34.55 189.247 32.15ZM199.047 49.65C202.647 49.65 204.447 47.1 204.447 42C204.447 36.9 202.647 34.35 199.047 34.35C195.413 34.35 193.597 36.9 193.597 42C193.597 47.1 195.413 49.65 199.047 49.65ZM213.183 29H220.583L220.783 32.6H220.883C221.85 31.3333 223.033 30.3333 224.433 29.6C225.866 28.8667 227.333 28.5 228.833 28.5C231.966 28.5 234.25 29.4167 235.683 31.25C237.116 33.0833 237.833 36.2167 237.833 40.65V55H229.933V41.5C229.933 38.8 229.65 37 229.083 36.1C228.516 35.1667 227.516 34.7 226.083 34.7C224.85 34.7 223.716 35.3667 222.683 36.7C221.683 38.0333 221.183 39.5833 221.183 41.35V55H213.183V29Z" fill="#69BDAE"/>
<path d="M83.1274 53C84.3644 51.8 84.6736 49.8333 84.6736 49H85.189V53.5H83.1274V53Z" fill="white"/>
<path d="M145.128 51.9922C145.903 51.8557 146.585 51 146.585 49H147.101V52V52.5H145.039V52C145.069 52 145.099 51.9973 145.128 51.9922Z" fill="white"/>
<path d="M154.405 51.9922C155.181 51.8557 155.863 51 155.863 49H156.378V52V52.5H154.316V52C154.316 52 154.376 51.9973 154.405 51.9922Z" fill="white"/>
<path d="M169.868 52.9922C170.643 52.8557 171.325 52 171.325 50H171.841V53L169.868 52.9922Z" fill="#FFFBF5"/>
<path d="M56.8049 57.4C54.2716 57.4 51.9883 56.8333 49.9549 55.7C47.9216 54.5333 46.3049 52.9167 45.1049 50.85C43.9383 48.7833 43.3549 46.35 43.3549 43.55C43.3549 40.7167 43.9383 38.2667 45.1049 36.2C46.3049 34.1333 47.9216 32.5333 49.9549 31.4C51.9883 30.2667 54.2716 29.7 56.8049 29.7C59.0716 29.7 61.0549 30.2 62.7549 31.2C64.4549 32.2 65.7716 33.7167 66.7049 35.75C67.6383 37.7833 68.1049 40.3833 68.1049 43.55C68.1049 46.6833 67.6549 49.2833 66.7549 51.35C65.8549 53.3833 64.5549 54.9 62.8549 55.9C61.1883 56.9 59.1716 57.4 56.8049 57.4ZM58.1549 51C59.4216 51 60.5716 50.7 61.6049 50.1C62.6383 49.5 63.4549 48.65 64.0549 47.55C64.6883 46.4167 65.0049 45.0833 65.0049 43.55C65.0049 41.9833 64.6883 40.65 64.0549 39.55C63.4549 38.45 62.6383 37.6 61.6049 37C60.5716 36.4 59.4216 36.1 58.1549 36.1C56.8549 36.1 55.6883 36.4 54.6549 37C53.6216 37.6 52.7883 38.45 52.1549 39.55C51.5549 40.65 51.2549 41.9833 51.2549 43.55C51.2549 45.0833 51.5549 46.4167 52.1549 47.55C52.7883 48.65 53.6216 49.5 54.6549 50.1C55.6883 50.7 56.8549 51 58.1549 51ZM65.2049 57V51.5L65.3549 43.5L64.8549 35.55V19.9H72.6549V57H65.2049Z" fill="#020202"/>
<path d="M115.145 45.3333C119.103 44.8 120.299 41.3333 120.299 40H121.33V46H115.145V45.3333Z" fill="#FFFBF5"/>
<ellipse cx="143.493" cy="61" rx="133.493" ry="9" fill="white"/>
<path d="M70.8191 53.5C73.2931 52.7 73.568 49.5 73.3962 48H73.9116V54H73.3962H70.8191V53.5Z" fill="white"/>
<path d="M40.257 56.8557C125.14 52.274 156.489 52.2703 243.78 56.8296C177.706 54.3241 111.633 54.1076 40.257 56.8557Z" fill="#69BDAE"/>
<path d="M168.748 52.5C170.294 52 170.81 51.5 170.81 50H171.325V53H168.748V52.5Z" fill="white"/>
<path d="M184.91 49.9776L185.526 49.9177L186.141 49.8578L186.45 52.8428L183.373 53.1422L183.311 52.5452C184.738 51.9239 184.972 50.5746 184.91 49.9776Z" fill="white"/>
</g>
<defs>
<clipPath id="clip0_17_340">
<rect width="277" height="82" fill="white"/>
</clipPath>
</defs>
</svg>
