<svg width="370" height="55" viewBox="0 0 370 55" fill="none" xmlns="http://www.w3.org/2000/svg">
<path d="M57 55C164.603 40.353 204.343 40.3412 315 54.9178C231.24 46.9071 147.481 46.2147 57 55Z" fill="#69BDAE"/>
<path d="M33.5705 34.28C31.6804 34.28 29.9421 33.9767 28.3554 33.37C26.7688 32.74 25.3921 31.865 24.2254 30.745C23.0588 29.6017 22.1488 28.2717 21.4954 26.755C20.8421 25.2383 20.5154 23.57 20.5154 21.75C20.5154 19.93 20.8421 18.2617 21.4954 16.745C22.1488 15.2283 23.0588 13.91 24.2254 12.79C25.4154 11.6467 26.8038 10.7717 28.3904 10.165C29.9771 9.535 31.7271 9.22 33.6404 9.22C35.5771 9.22 37.3505 9.535 38.9605 10.165C40.5705 10.795 41.9355 11.74 43.0555 13L40.8855 15.17C39.8821 14.19 38.7854 13.4783 37.5954 13.035C36.4288 12.5683 35.1571 12.335 33.7804 12.335C32.3804 12.335 31.0738 12.5683 29.8605 13.035C28.6704 13.5017 27.6321 14.155 26.7454 14.995C25.8821 15.835 25.2054 16.8383 24.7154 18.005C24.2488 19.1483 24.0154 20.3967 24.0154 21.75C24.0154 23.08 24.2488 24.3283 24.7154 25.495C25.2054 26.6383 25.8821 27.6417 26.7454 28.505C27.6321 29.345 28.6704 29.9983 29.8605 30.465C31.0505 30.9317 32.3455 31.165 33.7455 31.165C35.0521 31.165 36.3005 30.9667 37.4905 30.57C38.7038 30.15 39.8238 29.4617 40.8504 28.505L42.8455 31.165C41.6321 32.1917 40.2088 32.9733 38.5754 33.51C36.9655 34.0233 35.2971 34.28 33.5705 34.28ZM39.4855 30.71V21.61H42.8455V31.165L39.4855 30.71ZM49.0566 34V15.45H52.4166V34H49.0566ZM50.7366 11.88C50.0832 11.88 49.5349 11.67 49.0916 11.25C48.6716 10.83 48.4616 10.3167 48.4616 9.71C48.4616 9.08 48.6716 8.555 49.0916 8.135C49.5349 7.715 50.0832 7.505 50.7366 7.505C51.3899 7.505 51.9266 7.715 52.3466 8.135C52.7899 8.53166 53.0116 9.03333 53.0116 9.64C53.0116 10.27 52.8016 10.8067 52.3816 11.25C51.9616 11.67 51.4132 11.88 50.7366 11.88ZM63.697 34L55.577 15.45H59.077L66.287 32.25H64.607L71.957 15.45H75.247L67.127 34H63.697ZM86.1301 34.21C84.1467 34.21 82.3967 33.8017 80.8801 32.985C79.3867 32.1683 78.2201 31.0483 77.3801 29.625C76.5634 28.2017 76.1551 26.5683 76.1551 24.725C76.1551 22.8817 76.5517 21.2483 77.3451 19.825C78.1617 18.4017 79.2701 17.2933 80.6701 16.5C82.0934 15.6833 83.6917 15.275 85.4651 15.275C87.2617 15.275 88.8484 15.6717 90.2251 16.465C91.6017 17.2583 92.6751 18.3783 93.4451 19.825C94.2384 21.2483 94.6351 22.9167 94.6351 24.83C94.6351 24.97 94.6234 25.1333 94.6001 25.32C94.6001 25.5067 94.5884 25.6817 94.5651 25.845H78.7801V23.43H92.8151L91.4501 24.27C91.4734 23.08 91.2284 22.0183 90.7151 21.085C90.2017 20.1517 89.4901 19.4283 88.5801 18.915C87.6934 18.3783 86.6551 18.11 85.4651 18.11C84.2984 18.11 83.2601 18.3783 82.3501 18.915C81.4401 19.4283 80.7284 20.1633 80.2151 21.12C79.7017 22.0533 79.4451 23.1267 79.4451 24.34V24.9C79.4451 26.1367 79.7251 27.245 80.2851 28.225C80.8684 29.1817 81.6734 29.9283 82.7001 30.465C83.7267 31.0017 84.9051 31.27 86.2351 31.27C87.3317 31.27 88.3234 31.0833 89.2101 30.71C90.1201 30.3367 90.9134 29.7767 91.5901 29.03L93.4451 31.2C92.6051 32.18 91.5551 32.9267 90.2951 33.44C89.0584 33.9533 87.6701 34.21 86.1301 34.21ZM116.505 34.21C114.918 34.21 113.518 33.9183 112.305 33.335C111.115 32.7517 110.182 31.865 109.505 30.675C108.852 29.4617 108.525 27.945 108.525 26.125V15.45H111.885V25.74C111.885 27.56 112.317 28.925 113.18 29.835C114.067 30.745 115.303 31.2 116.89 31.2C118.057 31.2 119.072 30.9667 119.935 30.5C120.798 30.01 121.463 29.31 121.93 28.4C122.397 27.4667 122.63 26.3467 122.63 25.04V15.45H125.99V34H122.805V28.995L123.33 30.325C122.723 31.5617 121.813 32.5183 120.6 33.195C119.387 33.8717 118.022 34.21 116.505 34.21ZM137.707 34.21C136.167 34.21 134.697 34 133.297 33.58C131.92 33.16 130.835 32.6467 130.042 32.04L131.442 29.38C132.235 29.9167 133.215 30.3717 134.382 30.745C135.548 31.1183 136.738 31.305 137.952 31.305C139.515 31.305 140.635 31.0833 141.312 30.64C142.012 30.1967 142.362 29.5783 142.362 28.785C142.362 28.2017 142.152 27.7467 141.732 27.42C141.312 27.0933 140.752 26.8483 140.052 26.685C139.375 26.5217 138.617 26.3817 137.777 26.265C136.937 26.125 136.097 25.9617 135.257 25.775C134.417 25.565 133.647 25.285 132.947 24.935C132.247 24.5617 131.687 24.06 131.267 23.43C130.847 22.7767 130.637 21.9133 130.637 20.84C130.637 19.72 130.952 18.74 131.582 17.9C132.212 17.06 133.098 16.4183 134.242 15.975C135.408 15.5083 136.785 15.275 138.372 15.275C139.585 15.275 140.81 15.4267 142.047 15.73C143.307 16.01 144.333 16.4183 145.127 16.955L143.692 19.615C142.852 19.055 141.977 18.67 141.067 18.46C140.157 18.25 139.247 18.145 138.337 18.145C136.867 18.145 135.77 18.39 135.047 18.88C134.323 19.3467 133.962 19.9533 133.962 20.7C133.962 21.33 134.172 21.82 134.592 22.17C135.035 22.4967 135.595 22.7533 136.272 22.94C136.972 23.1267 137.742 23.29 138.582 23.43C139.422 23.5467 140.262 23.71 141.102 23.92C141.942 24.1067 142.7 24.375 143.377 24.725C144.077 25.075 144.637 25.565 145.057 26.195C145.5 26.825 145.722 27.665 145.722 28.715C145.722 29.835 145.395 30.8033 144.742 31.62C144.088 32.4367 143.167 33.0783 141.977 33.545C140.787 33.9883 139.363 34.21 137.707 34.21ZM170.835 34V30.08L170.66 29.345V22.66C170.66 21.2367 170.24 20.14 169.4 19.37C168.584 18.5767 167.347 18.18 165.69 18.18C164.594 18.18 163.52 18.3667 162.47 18.74C161.42 19.09 160.534 19.5683 159.81 20.175L158.41 17.655C159.367 16.885 160.51 16.3017 161.84 15.905C163.194 15.485 164.605 15.275 166.075 15.275C168.619 15.275 170.579 15.8933 171.955 17.13C173.332 18.3667 174.02 20.2567 174.02 22.8V34H170.835ZM164.745 34.21C163.369 34.21 162.155 33.9767 161.105 33.51C160.079 33.0433 159.285 32.4017 158.725 31.585C158.165 30.745 157.885 29.8 157.885 28.75C157.885 27.7467 158.119 26.8367 158.585 26.02C159.075 25.2033 159.857 24.55 160.93 24.06C162.027 23.57 163.497 23.325 165.34 23.325H171.22V25.74H165.48C163.8 25.74 162.669 26.02 162.085 26.58C161.502 27.14 161.21 27.8167 161.21 28.61C161.21 29.52 161.572 30.255 162.295 30.815C163.019 31.3517 164.022 31.62 165.305 31.62C166.565 31.62 167.662 31.34 168.595 30.78C169.552 30.22 170.24 29.4033 170.66 28.33L171.325 30.64C170.882 31.7367 170.1 32.6117 168.98 33.265C167.86 33.895 166.449 34.21 164.745 34.21ZM190.128 34V13.805C190.128 11.985 190.653 10.5383 191.703 9.465C192.776 8.36833 194.293 7.82 196.253 7.82C196.976 7.82 197.664 7.91333 198.318 8.1C198.994 8.26333 199.566 8.53167 200.033 8.905L199.018 11.46C198.668 11.18 198.271 10.97 197.828 10.83C197.384 10.6667 196.918 10.585 196.428 10.585C195.448 10.585 194.701 10.865 194.188 11.425C193.674 11.9617 193.418 12.7667 193.418 13.84V16.325L193.488 17.865V34H190.128ZM186.978 18.215V15.45H198.808V18.215H186.978ZM209.963 34.21C207.98 34.21 206.23 33.8017 204.713 32.985C203.22 32.1683 202.053 31.0483 201.213 29.625C200.396 28.2017 199.988 26.5683 199.988 24.725C199.988 22.8817 200.385 21.2483 201.178 19.825C201.995 18.4017 203.103 17.2933 204.503 16.5C205.926 15.6833 207.525 15.275 209.298 15.275C211.095 15.275 212.681 15.6717 214.058 16.465C215.435 17.2583 216.508 18.3783 217.278 19.825C218.071 21.2483 218.468 22.9167 218.468 24.83C218.468 24.97 218.456 25.1333 218.433 25.32C218.433 25.5067 218.421 25.6817 218.398 25.845H202.613V23.43H216.648L215.283 24.27C215.306 23.08 215.061 22.0183 214.548 21.085C214.035 20.1517 213.323 19.4283 212.413 18.915C211.526 18.3783 210.488 18.11 209.298 18.11C208.131 18.11 207.093 18.3783 206.183 18.915C205.273 19.4283 204.561 20.1633 204.048 21.12C203.535 22.0533 203.278 23.1267 203.278 24.34V24.9C203.278 26.1367 203.558 27.245 204.118 28.225C204.701 29.1817 205.506 29.9283 206.533 30.465C207.56 31.0017 208.738 31.27 210.068 31.27C211.165 31.27 212.156 31.0833 213.043 30.71C213.953 30.3367 214.746 29.7767 215.423 29.03L217.278 31.2C216.438 32.18 215.388 32.9267 214.128 33.44C212.891 33.9533 211.503 34.21 209.963 34.21ZM231.394 34.21C229.41 34.21 227.66 33.8017 226.144 32.985C224.65 32.1683 223.484 31.0483 222.644 29.625C221.827 28.2017 221.419 26.5683 221.419 24.725C221.419 22.8817 221.815 21.2483 222.609 19.825C223.425 18.4017 224.534 17.2933 225.934 16.5C227.357 15.6833 228.955 15.275 230.729 15.275C232.525 15.275 234.112 15.6717 235.489 16.465C236.865 17.2583 237.939 18.3783 238.709 19.825C239.502 21.2483 239.899 22.9167 239.899 24.83C239.899 24.97 239.887 25.1333 239.864 25.32C239.864 25.5067 239.852 25.6817 239.829 25.845H224.044V23.43H238.079L236.714 24.27C236.737 23.08 236.492 22.0183 235.979 21.085C235.465 20.1517 234.754 19.4283 233.844 18.915C232.957 18.3783 231.919 18.11 230.729 18.11C229.562 18.11 228.524 18.3783 227.614 18.915C226.704 19.4283 225.992 20.1633 225.479 21.12C224.965 22.0533 224.709 23.1267 224.709 24.34V24.9C224.709 26.1367 224.989 27.245 225.549 28.225C226.132 29.1817 226.937 29.9283 227.964 30.465C228.99 31.0017 230.169 31.27 231.499 31.27C232.595 31.27 233.587 31.0833 234.474 30.71C235.384 30.3367 236.177 29.7767 236.854 29.03L238.709 31.2C237.869 32.18 236.819 32.9267 235.559 33.44C234.322 33.9533 232.934 34.21 231.394 34.21ZM252.229 34.21C250.433 34.21 248.823 33.8133 247.399 33.02C245.999 32.2267 244.891 31.1183 244.074 29.695C243.258 28.2717 242.849 26.615 242.849 24.725C242.849 22.835 243.258 21.19 244.074 19.79C244.891 18.3667 245.999 17.2583 247.399 16.465C248.823 15.6717 250.433 15.275 252.229 15.275C253.793 15.275 255.204 15.625 256.464 16.325C257.724 17.025 258.728 18.075 259.474 19.475C260.244 20.875 260.629 22.625 260.629 24.725C260.629 26.825 260.256 28.575 259.509 29.975C258.786 31.375 257.794 32.4367 256.534 33.16C255.274 33.86 253.839 34.21 252.229 34.21ZM252.509 31.27C253.676 31.27 254.726 31.0017 255.659 30.465C256.616 29.9283 257.363 29.17 257.899 28.19C258.459 27.1867 258.739 26.0317 258.739 24.725C258.739 23.395 258.459 22.2517 257.899 21.295C257.363 20.315 256.616 19.5567 255.659 19.02C254.726 18.4833 253.676 18.215 252.509 18.215C251.319 18.215 250.258 18.4833 249.324 19.02C248.391 19.5567 247.644 20.315 247.084 21.295C246.524 22.2517 246.244 23.395 246.244 24.725C246.244 26.0317 246.524 27.1867 247.084 28.19C247.644 29.17 248.391 29.9283 249.324 30.465C250.258 31.0017 251.319 31.27 252.509 31.27ZM258.844 34V28.995L259.054 24.69L258.704 20.385V8.03H262.064V34H258.844ZM278.257 34.21C276.67 34.21 275.235 33.86 273.952 33.16C272.692 32.4367 271.688 31.375 270.942 29.975C270.218 28.575 269.857 26.825 269.857 24.725C269.857 22.625 270.23 20.875 270.977 19.475C271.747 18.075 272.762 17.025 274.022 16.325C275.305 15.625 276.717 15.275 278.257 15.275C280.077 15.275 281.687 15.6717 283.087 16.465C284.487 17.2583 285.595 18.3667 286.412 19.79C287.228 21.19 287.637 22.835 287.637 24.725C287.637 26.615 287.228 28.2717 286.412 29.695C285.595 31.1183 284.487 32.2267 283.087 33.02C281.687 33.8133 280.077 34.21 278.257 34.21ZM268.422 34V8.03H271.782V20.385L271.432 24.69L271.642 28.995V34H268.422ZM277.977 31.27C279.167 31.27 280.228 31.0017 281.162 30.465C282.118 29.9283 282.865 29.17 283.402 28.19C283.962 27.1867 284.242 26.0317 284.242 24.725C284.242 23.395 283.962 22.2517 283.402 21.295C282.865 20.315 282.118 19.5567 281.162 19.02C280.228 18.4833 279.167 18.215 277.977 18.215C276.81 18.215 275.748 18.4833 274.792 19.02C273.858 19.5567 273.112 20.315 272.552 21.295C272.015 22.2517 271.747 23.395 271.747 24.725C271.747 26.0317 272.015 27.1867 272.552 28.19C273.112 29.17 273.858 29.9283 274.792 30.465C275.748 31.0017 276.81 31.27 277.977 31.27ZM303.623 34V30.08L303.448 29.345V22.66C303.448 21.2367 303.028 20.14 302.188 19.37C301.372 18.5767 300.135 18.18 298.478 18.18C297.382 18.18 296.308 18.3667 295.258 18.74C294.208 19.09 293.322 19.5683 292.598 20.175L291.198 17.655C292.155 16.885 293.298 16.3017 294.628 15.905C295.982 15.485 297.393 15.275 298.863 15.275C301.407 15.275 303.367 15.8933 304.743 17.13C306.12 18.3667 306.808 20.2567 306.808 22.8V34H303.623ZM297.533 34.21C296.157 34.21 294.943 33.9767 293.893 33.51C292.867 33.0433 292.073 32.4017 291.513 31.585C290.953 30.745 290.673 29.8 290.673 28.75C290.673 27.7467 290.907 26.8367 291.373 26.02C291.863 25.2033 292.645 24.55 293.718 24.06C294.815 23.57 296.285 23.325 298.128 23.325H304.008V25.74H298.268C296.588 25.74 295.457 26.02 294.873 26.58C294.29 27.14 293.998 27.8167 293.998 28.61C293.998 29.52 294.36 30.255 295.083 30.815C295.807 31.3517 296.81 31.62 298.093 31.62C299.353 31.62 300.45 31.34 301.383 30.78C302.34 30.22 303.028 29.4033 303.448 28.33L304.113 30.64C303.67 31.7367 302.888 32.6117 301.768 33.265C300.648 33.895 299.237 34.21 297.533 34.21ZM321.111 34.21C319.221 34.21 317.53 33.8017 316.036 32.985C314.566 32.1683 313.411 31.0483 312.571 29.625C311.731 28.2017 311.311 26.5683 311.311 24.725C311.311 22.8817 311.731 21.2483 312.571 19.825C313.411 18.4017 314.566 17.2933 316.036 16.5C317.53 15.6833 319.221 15.275 321.111 15.275C322.791 15.275 324.285 15.6133 325.591 16.29C326.921 16.9433 327.948 17.9233 328.671 19.23L326.116 20.875C325.51 19.965 324.763 19.3 323.876 18.88C323.013 18.4367 322.08 18.215 321.076 18.215C319.863 18.215 318.778 18.4833 317.821 19.02C316.865 19.5567 316.106 20.315 315.546 21.295C314.986 22.2517 314.706 23.395 314.706 24.725C314.706 26.055 314.986 27.21 315.546 28.19C316.106 29.17 316.865 29.9283 317.821 30.465C318.778 31.0017 319.863 31.27 321.076 31.27C322.08 31.27 323.013 31.06 323.876 30.64C324.763 30.1967 325.51 29.52 326.116 28.61L328.671 30.22C327.948 31.5033 326.921 32.495 325.591 33.195C324.285 33.8717 322.791 34.21 321.111 34.21ZM335.512 29.52L335.582 25.215L346.257 15.45H350.317L342.127 23.5L340.307 25.04L335.512 29.52ZM332.782 34V8.03H336.142V34H332.782ZM346.957 34L339.677 24.97L341.847 22.275L351.087 34H346.957Z" fill="black"/>
</svg>
