<svg width="21" height="22" viewBox="0 0 21 22" fill="none" xmlns="http://www.w3.org/2000/svg">
<path d="M1.86963 17.7974V10.7721C1.86963 10.3779 2.02487 9.99945 2.30175 9.71875L9.71261 2.20601C10.2968 1.61378 11.2514 1.61007 11.8401 2.19773L19.374 9.71731C19.656 9.99869 19.8144 10.3807 19.8144 10.779V17.7974C19.8144 19.1782 18.6951 20.2974 17.3144 20.2974H13.5384C13.2622 20.2974 13.0384 20.0736 13.0384 19.7974V13.8532C13.0384 13.0248 12.3668 12.3532 11.5384 12.3532H10.0989C9.27047 12.3532 8.5989 13.0248 8.5989 13.8532V19.2974C8.5989 19.8497 8.15118 20.2974 7.5989 20.2974H4.36963C2.98892 20.2974 1.86963 19.1782 1.86963 17.7974Z" stroke="#414141" stroke-width="2"/>
</svg>
