<svg width="21" height="21" viewBox="0 0 21 21" fill="none" xmlns="http://www.w3.org/2000/svg">
<path d="M1.1377 17.1182V10.0929C1.1377 9.69867 1.29293 9.32025 1.56982 9.03955L8.98068 1.52681C9.56487 0.934582 10.5194 0.93087 11.1082 1.51853L18.6421 9.03811C18.924 9.31949 19.0825 9.70146 19.0825 10.0998V17.1182C19.0825 18.499 17.9632 19.6182 16.5825 19.6182H12.8064C12.5303 19.6182 12.3064 19.3944 12.3064 19.1182V13.174C12.3064 12.3456 11.6349 11.674 10.8064 11.674H9.36697C8.53854 11.674 7.86697 12.3456 7.86697 13.174V18.6182C7.86697 19.1705 7.41925 19.6182 6.86696 19.6182H3.6377C2.25698 19.6182 1.1377 18.499 1.1377 17.1182Z" stroke="#77C7A4" stroke-width="2"/>
</svg>
