<svg width="104" height="18" viewBox="0 0 104 18" fill="none" xmlns="http://www.w3.org/2000/svg">
<path d="M5.00928 14.108C4.07328 14.108 3.17328 13.958 2.30928 13.658C1.45728 13.346 0.79728 12.95 0.32928 12.47L0.85128 11.444C1.29528 11.876 1.88928 12.242 2.63328 12.542C3.38928 12.83 4.18128 12.974 5.00928 12.974C5.80128 12.974 6.44328 12.878 6.93528 12.686C7.43928 12.482 7.80528 12.212 8.03328 11.876C8.27328 11.54 8.39328 11.168 8.39328 10.76C8.39328 10.268 8.24928 9.872 7.96128 9.572C7.68528 9.272 7.31928 9.038 6.86328 8.87C6.40728 8.69 5.90328 8.534 5.35128 8.402C4.79928 8.27 4.24728 8.132 3.69528 7.988C3.14328 7.832 2.63328 7.628 2.16528 7.376C1.70928 7.124 1.33728 6.794 1.04928 6.386C0.77328 5.966 0.63528 5.42 0.63528 4.748C0.63528 4.124 0.79728 3.554 1.12128 3.038C1.45728 2.51 1.96728 2.09 2.65128 1.778C3.33528 1.454 4.21128 1.292 5.27928 1.292C5.98728 1.292 6.68928 1.394 7.38528 1.598C8.08128 1.79 8.68128 2.06 9.18528 2.408L8.73528 3.47C8.19528 3.11 7.61928 2.846 7.00728 2.678C6.40728 2.51 5.82528 2.426 5.26128 2.426C4.50528 2.426 3.88128 2.528 3.38928 2.732C2.89728 2.936 2.53128 3.212 2.29128 3.56C2.06328 3.896 1.94928 4.28 1.94928 4.712C1.94928 5.204 2.08728 5.6 2.36328 5.9C2.65128 6.2 3.02328 6.434 3.47928 6.602C3.94728 6.77 4.45728 6.92 5.00928 7.052C5.56128 7.184 6.10728 7.328 6.64728 7.484C7.19928 7.64 7.70328 7.844 8.15928 8.096C8.62728 8.336 8.99928 8.66 9.27528 9.068C9.56328 9.476 9.70728 10.01 9.70728 10.67C9.70728 11.282 9.53928 11.852 9.20328 12.38C8.86728 12.896 8.35128 13.316 7.65528 13.64C6.97128 13.952 6.08928 14.108 5.00928 14.108ZM12.3395 14V0.643999H13.6175V14H12.3395ZM21.1875 14.09C20.2035 14.09 19.3395 13.886 18.5955 13.478C17.8515 13.058 17.2695 12.488 16.8495 11.768C16.4295 11.036 16.2195 10.202 16.2195 9.266C16.2195 8.33 16.4175 7.502 16.8135 6.782C17.2215 6.062 17.7735 5.498 18.4695 5.09C19.1775 4.67 19.9695 4.46 20.8455 4.46C21.7335 4.46 22.5195 4.664 23.2035 5.072C23.8995 5.468 24.4455 6.032 24.8415 6.764C25.2375 7.484 25.4355 8.318 25.4355 9.266C25.4355 9.326 25.4295 9.392 25.4175 9.464C25.4175 9.524 25.4175 9.59 25.4175 9.662H17.1915V8.708H24.7335L24.2295 9.086C24.2295 8.402 24.0795 7.796 23.7795 7.268C23.4915 6.728 23.0955 6.308 22.5915 6.008C22.0875 5.708 21.5055 5.558 20.8455 5.558C20.1975 5.558 19.6155 5.708 19.0995 6.008C18.5835 6.308 18.1815 6.728 17.8935 7.268C17.6055 7.808 17.4615 8.426 17.4615 9.122V9.32C17.4615 10.04 17.6175 10.676 17.9295 11.228C18.2535 11.768 18.6975 12.194 19.2615 12.506C19.8375 12.806 20.4915 12.956 21.2235 12.956C21.7995 12.956 22.3335 12.854 22.8255 12.65C23.3295 12.446 23.7615 12.134 24.1215 11.714L24.8415 12.542C24.4215 13.046 23.8935 13.43 23.2575 13.694C22.6335 13.958 21.9435 14.09 21.1875 14.09ZM32.0508 14.09C31.0668 14.09 30.2028 13.886 29.4588 13.478C28.7148 13.058 28.1328 12.488 27.7128 11.768C27.2928 11.036 27.0828 10.202 27.0828 9.266C27.0828 8.33 27.2808 7.502 27.6768 6.782C28.0848 6.062 28.6368 5.498 29.3328 5.09C30.0408 4.67 30.8328 4.46 31.7088 4.46C32.5968 4.46 33.3828 4.664 34.0668 5.072C34.7628 5.468 35.3088 6.032 35.7048 6.764C36.1008 7.484 36.2988 8.318 36.2988 9.266C36.2988 9.326 36.2928 9.392 36.2808 9.464C36.2808 9.524 36.2808 9.59 36.2808 9.662H28.0548V8.708H35.5968L35.0928 9.086C35.0928 8.402 34.9428 7.796 34.6428 7.268C34.3548 6.728 33.9588 6.308 33.4548 6.008C32.9508 5.708 32.3688 5.558 31.7088 5.558C31.0608 5.558 30.4788 5.708 29.9628 6.008C29.4468 6.308 29.0448 6.728 28.7568 7.268C28.4688 7.808 28.3248 8.426 28.3248 9.122V9.32C28.3248 10.04 28.4808 10.676 28.7928 11.228C29.1168 11.768 29.5608 12.194 30.1248 12.506C30.7008 12.806 31.3548 12.956 32.0868 12.956C32.6628 12.956 33.1968 12.854 33.6888 12.65C34.1928 12.446 34.6248 12.134 34.9848 11.714L35.7048 12.542C35.2848 13.046 34.7568 13.43 34.1208 13.694C33.4968 13.958 32.8068 14.09 32.0508 14.09ZM43.778 14.09C42.962 14.09 42.224 13.904 41.564 13.532C40.904 13.148 40.376 12.602 39.98 11.894C39.596 11.174 39.404 10.298 39.404 9.266C39.404 8.234 39.596 7.364 39.98 6.656C40.364 5.936 40.886 5.39 41.546 5.018C42.206 4.646 42.95 4.46 43.778 4.46C44.678 4.46 45.482 4.664 46.19 5.072C46.91 5.468 47.474 6.032 47.882 6.764C48.29 7.484 48.494 8.318 48.494 9.266C48.494 10.226 48.29 11.066 47.882 11.786C47.474 12.506 46.91 13.07 46.19 13.478C45.482 13.886 44.678 14.09 43.778 14.09ZM38.9 17.492V4.55H40.124V7.394L39.998 9.284L40.178 11.192V17.492H38.9ZM43.688 12.956C44.36 12.956 44.96 12.806 45.488 12.506C46.016 12.194 46.436 11.762 46.748 11.21C47.06 10.646 47.216 9.998 47.216 9.266C47.216 8.534 47.06 7.892 46.748 7.34C46.436 6.788 46.016 6.356 45.488 6.044C44.96 5.732 44.36 5.576 43.688 5.576C43.016 5.576 42.41 5.732 41.87 6.044C41.342 6.356 40.922 6.788 40.61 7.34C40.31 7.892 40.16 8.534 40.16 9.266C40.16 9.998 40.31 10.646 40.61 11.21C40.922 11.762 41.342 12.194 41.87 12.506C42.41 12.806 43.016 12.956 43.688 12.956ZM51.3693 14V1.4H52.4673L58.2273 11.228H57.6513L63.3573 1.4H64.4553V14H63.1773V3.398H63.4833L58.2273 12.398H57.5973L52.3053 3.398H52.6473V14H51.3693ZM72.3047 14.09C71.3207 14.09 70.4567 13.886 69.7127 13.478C68.9687 13.058 68.3867 12.488 67.9667 11.768C67.5467 11.036 67.3367 10.202 67.3367 9.266C67.3367 8.33 67.5347 7.502 67.9307 6.782C68.3387 6.062 68.8907 5.498 69.5867 5.09C70.2947 4.67 71.0867 4.46 71.9627 4.46C72.8507 4.46 73.6367 4.664 74.3207 5.072C75.0167 5.468 75.5627 6.032 75.9587 6.764C76.3547 7.484 76.5527 8.318 76.5527 9.266C76.5527 9.326 76.5467 9.392 76.5347 9.464C76.5347 9.524 76.5347 9.59 76.5347 9.662H68.3087V8.708H75.8507L75.3467 9.086C75.3467 8.402 75.1967 7.796 74.8967 7.268C74.6087 6.728 74.2127 6.308 73.7087 6.008C73.2047 5.708 72.6227 5.558 71.9627 5.558C71.3147 5.558 70.7327 5.708 70.2167 6.008C69.7007 6.308 69.2987 6.728 69.0107 7.268C68.7227 7.808 68.5787 8.426 68.5787 9.122V9.32C68.5787 10.04 68.7347 10.676 69.0467 11.228C69.3707 11.768 69.8147 12.194 70.3787 12.506C70.9547 12.806 71.6087 12.956 72.3407 12.956C72.9167 12.956 73.4507 12.854 73.9427 12.65C74.4467 12.446 74.8787 12.134 75.2387 11.714L75.9587 12.542C75.5387 13.046 75.0107 13.43 74.3747 13.694C73.7507 13.958 73.0607 14.09 72.3047 14.09ZM82.9159 14.09C82.0159 14.09 81.2059 13.886 80.4859 13.478C79.7779 13.07 79.2199 12.506 78.8119 11.786C78.4039 11.054 78.1999 10.214 78.1999 9.266C78.1999 8.306 78.4039 7.466 78.8119 6.746C79.2199 6.026 79.7779 5.468 80.4859 5.072C81.2059 4.664 82.0159 4.46 82.9159 4.46C83.7439 4.46 84.4819 4.646 85.1299 5.018C85.7899 5.39 86.3119 5.936 86.6959 6.656C87.0919 7.364 87.2899 8.234 87.2899 9.266C87.2899 10.286 87.0979 11.156 86.7139 11.876C86.3299 12.596 85.8079 13.148 85.1479 13.532C84.4999 13.904 83.7559 14.09 82.9159 14.09ZM83.0059 12.956C83.6779 12.956 84.2779 12.806 84.8059 12.506C85.3459 12.194 85.7659 11.762 86.0659 11.21C86.3779 10.646 86.5339 9.998 86.5339 9.266C86.5339 8.522 86.3779 7.874 86.0659 7.322C85.7659 6.77 85.3459 6.344 84.8059 6.044C84.2779 5.732 83.6779 5.576 83.0059 5.576C82.3459 5.576 81.7519 5.732 81.2239 6.044C80.6959 6.344 80.2759 6.77 79.9639 7.322C79.6519 7.874 79.4959 8.522 79.4959 9.266C79.4959 9.998 79.6519 10.646 79.9639 11.21C80.2759 11.762 80.6959 12.194 81.2239 12.506C81.7519 12.806 82.3459 12.956 83.0059 12.956ZM86.5699 14V11.156L86.6959 9.248L86.5159 7.34V0.643999H87.7939V14H86.5699ZM91.3532 14V4.55H92.6312V14H91.3532ZM92.0012 2.462C91.7372 2.462 91.5152 2.372 91.3352 2.192C91.1552 2.012 91.0652 1.796 91.0652 1.544C91.0652 1.292 91.1552 1.082 91.3352 0.913999C91.5152 0.733999 91.7372 0.643999 92.0012 0.643999C92.2652 0.643999 92.4872 0.727999 92.6672 0.895999C92.8472 1.064 92.9372 1.274 92.9372 1.526C92.9372 1.79 92.8472 2.012 92.6672 2.192C92.4992 2.372 92.2772 2.462 92.0012 2.462ZM102.109 14V11.912L102.055 11.57V8.078C102.055 7.274 101.827 6.656 101.371 6.224C100.927 5.792 100.261 5.576 99.3732 5.576C98.7612 5.576 98.1792 5.678 97.6272 5.882C97.0752 6.086 96.6072 6.356 96.2232 6.692L95.6472 5.738C96.1272 5.33 96.7032 5.018 97.3752 4.802C98.0472 4.574 98.7552 4.46 99.4992 4.46C100.723 4.46 101.665 4.766 102.325 5.378C102.997 5.978 103.333 6.896 103.333 8.132V14H102.109ZM98.8512 14.09C98.1432 14.09 97.5252 13.976 96.9972 13.748C96.4812 13.508 96.0852 13.184 95.8092 12.776C95.5332 12.356 95.3952 11.876 95.3952 11.336C95.3952 10.844 95.5092 10.4 95.7372 10.004C95.9772 9.596 96.3612 9.272 96.8892 9.032C97.4292 8.78 98.1492 8.654 99.0492 8.654H102.307V9.608H99.0852C98.1732 9.608 97.5372 9.77 97.1772 10.094C96.8292 10.418 96.6552 10.82 96.6552 11.3C96.6552 11.84 96.8652 12.272 97.2852 12.596C97.7052 12.92 98.2932 13.082 99.0492 13.082C99.7692 13.082 100.387 12.92 100.903 12.596C101.431 12.26 101.815 11.78 102.055 11.156L102.343 12.038C102.103 12.662 101.683 13.16 101.083 13.532C100.495 13.904 99.7512 14.09 98.8512 14.09Z" fill="#5B5858"/>
</svg>
