<svg width="107" height="18" viewBox="0 0 107 18" fill="none" xmlns="http://www.w3.org/2000/svg">
<path d="M5.17504 14.3387C4.23904 14.3387 3.33904 14.1887 2.47504 13.8887C1.62304 13.5767 0.96304 13.1807 0.49504 12.7007L1.01704 11.6747C1.46104 12.1067 2.05504 12.4727 2.79904 12.7727C3.55504 13.0607 4.34704 13.2047 5.17504 13.2047C5.96704 13.2047 6.60904 13.1087 7.10104 12.9167C7.60504 12.7127 7.97104 12.4427 8.19904 12.1067C8.43904 11.7707 8.55904 11.3987 8.55904 10.9907C8.55904 10.4987 8.41504 10.1027 8.12704 9.80271C7.85104 9.50271 7.48504 9.26871 7.02904 9.10071C6.57304 8.92071 6.06904 8.76471 5.51704 8.63271C4.96504 8.50071 4.41304 8.36271 3.86104 8.21871C3.30904 8.06271 2.79904 7.85871 2.33104 7.60671C1.87504 7.35471 1.50304 7.02471 1.21504 6.61671C0.93904 6.19671 0.80104 5.65071 0.80104 4.97871C0.80104 4.35471 0.96304 3.78471 1.28704 3.26871C1.62304 2.74071 2.13304 2.32071 2.81704 2.00871C3.50104 1.68471 4.37704 1.52271 5.44504 1.52271C6.15304 1.52271 6.85504 1.62471 7.55104 1.82871C8.24704 2.02071 8.84704 2.29071 9.35104 2.63871L8.90104 3.70071C8.36104 3.34071 7.78504 3.07671 7.17304 2.90871C6.57304 2.74071 5.99104 2.65671 5.42704 2.65671C4.67104 2.65671 4.04704 2.75871 3.55504 2.96271C3.06304 3.16671 2.69704 3.44271 2.45704 3.79071C2.22904 4.12671 2.11504 4.51071 2.11504 4.94271C2.11504 5.43471 2.25304 5.83071 2.52904 6.13071C2.81704 6.43071 3.18904 6.66471 3.64504 6.83271C4.11304 7.00071 4.62304 7.15071 5.17504 7.28271C5.72704 7.41471 6.27304 7.55871 6.81304 7.71471C7.36504 7.87071 7.86904 8.07471 8.32504 8.32671C8.79304 8.56671 9.16504 8.89071 9.44104 9.29871C9.72904 9.70671 9.87304 10.2407 9.87304 10.9007C9.87304 11.5127 9.70504 12.0827 9.36904 12.6107C9.03304 13.1267 8.51704 13.5467 7.82104 13.8707C7.13704 14.1827 6.25504 14.3387 5.17504 14.3387ZM12.5053 14.2307V0.874712H13.7833V14.2307H12.5053ZM21.3532 14.3207C20.3692 14.3207 19.5052 14.1167 18.7612 13.7087C18.0172 13.2887 17.4352 12.7187 17.0152 11.9987C16.5952 11.2667 16.3852 10.4327 16.3852 9.49671C16.3852 8.56071 16.5832 7.73271 16.9792 7.01271C17.3872 6.29271 17.9392 5.72871 18.6352 5.32071C19.3432 4.90071 20.1352 4.69071 21.0112 4.69071C21.8992 4.69071 22.6852 4.89471 23.3692 5.30271C24.0652 5.69871 24.6112 6.26271 25.0072 6.99471C25.4032 7.71471 25.6012 8.54871 25.6012 9.49671C25.6012 9.55671 25.5952 9.62271 25.5832 9.69471C25.5832 9.75471 25.5832 9.82071 25.5832 9.89271H17.3572V8.93871H24.8992L24.3952 9.31671C24.3952 8.63271 24.2452 8.02671 23.9452 7.49871C23.6572 6.95871 23.2612 6.53871 22.7572 6.23871C22.2532 5.93871 21.6712 5.78871 21.0112 5.78871C20.3632 5.78871 19.7812 5.93871 19.2652 6.23871C18.7492 6.53871 18.3472 6.95871 18.0592 7.49871C17.7712 8.03871 17.6272 8.65671 17.6272 9.35271V9.55071C17.6272 10.2707 17.7832 10.9067 18.0952 11.4587C18.4192 11.9987 18.8632 12.4247 19.4272 12.7367C20.0032 13.0367 20.6572 13.1867 21.3892 13.1867C21.9652 13.1867 22.4992 13.0847 22.9912 12.8807C23.4952 12.6767 23.9272 12.3647 24.2872 11.9447L25.0072 12.7727C24.5872 13.2767 24.0592 13.6607 23.4232 13.9247C22.7992 14.1887 22.1092 14.3207 21.3532 14.3207ZM32.2165 14.3207C31.2325 14.3207 30.3685 14.1167 29.6245 13.7087C28.8805 13.2887 28.2985 12.7187 27.8785 11.9987C27.4585 11.2667 27.2485 10.4327 27.2485 9.49671C27.2485 8.56071 27.4465 7.73271 27.8425 7.01271C28.2505 6.29271 28.8025 5.72871 29.4985 5.32071C30.2065 4.90071 30.9985 4.69071 31.8745 4.69071C32.7625 4.69071 33.5485 4.89471 34.2325 5.30271C34.9285 5.69871 35.4745 6.26271 35.8705 6.99471C36.2665 7.71471 36.4645 8.54871 36.4645 9.49671C36.4645 9.55671 36.4585 9.62271 36.4465 9.69471C36.4465 9.75471 36.4465 9.82071 36.4465 9.89271H28.2205V8.93871H35.7625L35.2585 9.31671C35.2585 8.63271 35.1085 8.02671 34.8085 7.49871C34.5205 6.95871 34.1245 6.53871 33.6205 6.23871C33.1165 5.93871 32.5345 5.78871 31.8745 5.78871C31.2265 5.78871 30.6445 5.93871 30.1285 6.23871C29.6125 6.53871 29.2105 6.95871 28.9225 7.49871C28.6345 8.03871 28.4905 8.65671 28.4905 9.35271V9.55071C28.4905 10.2707 28.6465 10.9067 28.9585 11.4587C29.2825 11.9987 29.7265 12.4247 30.2905 12.7367C30.8665 13.0367 31.5205 13.1867 32.2525 13.1867C32.8285 13.1867 33.3625 13.0847 33.8545 12.8807C34.3585 12.6767 34.7905 12.3647 35.1505 11.9447L35.8705 12.7727C35.4505 13.2767 34.9225 13.6607 34.2865 13.9247C33.6625 14.1887 32.9725 14.3207 32.2165 14.3207ZM43.9438 14.3207C43.1278 14.3207 42.3898 14.1347 41.7298 13.7627C41.0698 13.3787 40.5418 12.8327 40.1458 12.1247C39.7618 11.4047 39.5698 10.5287 39.5698 9.49671C39.5698 8.46471 39.7618 7.59471 40.1458 6.88671C40.5298 6.16671 41.0518 5.62071 41.7118 5.24871C42.3718 4.87671 43.1158 4.69071 43.9438 4.69071C44.8438 4.69071 45.6478 4.89471 46.3558 5.30271C47.0758 5.69871 47.6398 6.26271 48.0478 6.99471C48.4558 7.71471 48.6598 8.54871 48.6598 9.49671C48.6598 10.4567 48.4558 11.2967 48.0478 12.0167C47.6398 12.7367 47.0758 13.3007 46.3558 13.7087C45.6478 14.1167 44.8438 14.3207 43.9438 14.3207ZM39.0658 17.7227V4.78071H40.2898V7.62471L40.1638 9.51471L40.3438 11.4227V17.7227H39.0658ZM43.8538 13.1867C44.5258 13.1867 45.1258 13.0367 45.6538 12.7367C46.1818 12.4247 46.6018 11.9927 46.9138 11.4407C47.2258 10.8767 47.3818 10.2287 47.3818 9.49671C47.3818 8.76471 47.2258 8.12271 46.9138 7.57071C46.6018 7.01871 46.1818 6.58671 45.6538 6.27471C45.1258 5.96271 44.5258 5.80671 43.8538 5.80671C43.1818 5.80671 42.5758 5.96271 42.0358 6.27471C41.5078 6.58671 41.0878 7.01871 40.7758 7.57071C40.4758 8.12271 40.3258 8.76471 40.3258 9.49671C40.3258 10.2287 40.4758 10.8767 40.7758 11.4407C41.0878 11.9927 41.5078 12.4247 42.0358 12.7367C42.5758 13.0367 43.1818 13.1867 43.8538 13.1867ZM55.009 14.3387C54.073 14.3387 53.173 14.1887 52.309 13.8887C51.457 13.5767 50.797 13.1807 50.329 12.7007L50.851 11.6747C51.295 12.1067 51.889 12.4727 52.633 12.7727C53.389 13.0607 54.181 13.2047 55.009 13.2047C55.801 13.2047 56.443 13.1087 56.935 12.9167C57.439 12.7127 57.805 12.4427 58.033 12.1067C58.273 11.7707 58.393 11.3987 58.393 10.9907C58.393 10.4987 58.249 10.1027 57.961 9.80271C57.685 9.50271 57.319 9.26871 56.863 9.10071C56.407 8.92071 55.903 8.76471 55.351 8.63271C54.799 8.50071 54.247 8.36271 53.695 8.21871C53.143 8.06271 52.633 7.85871 52.165 7.60671C51.709 7.35471 51.337 7.02471 51.049 6.61671C50.773 6.19671 50.635 5.65071 50.635 4.97871C50.635 4.35471 50.797 3.78471 51.121 3.26871C51.457 2.74071 51.967 2.32071 52.651 2.00871C53.335 1.68471 54.211 1.52271 55.279 1.52271C55.987 1.52271 56.689 1.62471 57.385 1.82871C58.081 2.02071 58.681 2.29071 59.185 2.63871L58.735 3.70071C58.195 3.34071 57.619 3.07671 57.007 2.90871C56.407 2.74071 55.825 2.65671 55.261 2.65671C54.505 2.65671 53.881 2.75871 53.389 2.96271C52.897 3.16671 52.531 3.44271 52.291 3.79071C52.063 4.12671 51.949 4.51071 51.949 4.94271C51.949 5.43471 52.087 5.83071 52.363 6.13071C52.651 6.43071 53.023 6.66471 53.479 6.83271C53.947 7.00071 54.457 7.15071 55.009 7.28271C55.561 7.41471 56.107 7.55871 56.647 7.71471C57.199 7.87071 57.703 8.07471 58.159 8.32671C58.627 8.56671 58.999 8.89071 59.275 9.29871C59.563 9.70671 59.707 10.2407 59.707 10.9007C59.707 11.5127 59.539 12.0827 59.203 12.6107C58.867 13.1267 58.351 13.5467 57.655 13.8707C56.971 14.1827 56.089 14.3387 55.009 14.3387ZM66.1912 14.3207C65.2792 14.3207 64.4572 14.1167 63.7252 13.7087C63.0052 13.2887 62.4352 12.7187 62.0152 11.9987C61.5952 11.2667 61.3852 10.4327 61.3852 9.49671C61.3852 8.54871 61.5952 7.71471 62.0152 6.99471C62.4352 6.27471 63.0052 5.71071 63.7252 5.30271C64.4452 4.89471 65.2672 4.69071 66.1912 4.69071C67.1272 4.69071 67.9552 4.89471 68.6752 5.30271C69.4072 5.71071 69.9772 6.27471 70.3852 6.99471C70.8052 7.71471 71.0152 8.54871 71.0152 9.49671C71.0152 10.4327 70.8052 11.2667 70.3852 11.9987C69.9772 12.7187 69.4072 13.2887 68.6752 13.7087C67.9432 14.1167 67.1152 14.3207 66.1912 14.3207ZM66.1912 13.1867C66.8752 13.1867 67.4812 13.0367 68.0092 12.7367C68.5372 12.4247 68.9512 11.9927 69.2512 11.4407C69.5632 10.8767 69.7192 10.2287 69.7192 9.49671C69.7192 8.75271 69.5632 8.10471 69.2512 7.55271C68.9512 7.00071 68.5372 6.57471 68.0092 6.27471C67.4812 5.96271 66.8812 5.80671 66.2092 5.80671C65.5372 5.80671 64.9372 5.96271 64.4092 6.27471C63.8812 6.57471 63.4612 7.00071 63.1492 7.55271C62.8372 8.10471 62.6812 8.75271 62.6812 9.49671C62.6812 10.2287 62.8372 10.8767 63.1492 11.4407C63.4612 11.9927 63.8812 12.4247 64.4092 12.7367C64.9372 13.0367 65.5312 13.1867 66.1912 13.1867ZM77.5304 14.3207C76.7264 14.3207 76.0244 14.1707 75.4244 13.8707C74.8244 13.5707 74.3564 13.1207 74.0204 12.5207C73.6964 11.9207 73.5344 11.1707 73.5344 10.2707V4.78071H74.8124V10.1267C74.8124 11.1347 75.0584 11.8967 75.5504 12.4127C76.0544 12.9167 76.7564 13.1687 77.6564 13.1687C78.3164 13.1687 78.8864 13.0367 79.3664 12.7727C79.8584 12.4967 80.2304 12.1007 80.4824 11.5847C80.7464 11.0687 80.8784 10.4507 80.8784 9.73071V4.78071H82.1564V14.2307H80.9324V11.6387L81.1304 12.1067C80.8304 12.8027 80.3624 13.3487 79.7264 13.7447C79.1024 14.1287 78.3704 14.3207 77.5304 14.3207ZM90.5421 4.69071C91.3101 4.69071 91.9822 4.84071 92.5582 5.14071C93.1461 5.42871 93.6021 5.87271 93.9261 6.47271C94.2621 7.07271 94.4301 7.82871 94.4301 8.74071V14.2307H93.1522V8.86671C93.1522 7.87071 92.9002 7.12071 92.3962 6.61671C91.9042 6.10071 91.2081 5.84271 90.3081 5.84271C89.6361 5.84271 89.0481 5.98071 88.5441 6.25671C88.0521 6.52071 87.6681 6.91071 87.3921 7.42671C87.1281 7.93071 86.9961 8.54271 86.9961 9.26271V14.2307H85.7181V4.78071H86.9421V7.37271L86.7441 6.88671C87.0441 6.20271 87.5241 5.66871 88.1841 5.28471C88.8441 4.88871 89.6301 4.69071 90.5421 4.69071ZM101.644 14.3207C100.744 14.3207 99.9342 14.1167 99.2142 13.7087C98.5062 13.3007 97.9482 12.7367 97.5402 12.0167C97.1322 11.2847 96.9282 10.4447 96.9282 9.49671C96.9282 8.53671 97.1322 7.69671 97.5402 6.97671C97.9482 6.25671 98.5062 5.69871 99.2142 5.30271C99.9342 4.89471 100.744 4.69071 101.644 4.69071C102.472 4.69071 103.21 4.87671 103.858 5.24871C104.518 5.62071 105.04 6.16671 105.424 6.88671C105.82 7.59471 106.018 8.46471 106.018 9.49671C106.018 10.5167 105.826 11.3867 105.442 12.1067C105.058 12.8267 104.536 13.3787 103.876 13.7627C103.228 14.1347 102.484 14.3207 101.644 14.3207ZM101.734 13.1867C102.406 13.1867 103.006 13.0367 103.534 12.7367C104.074 12.4247 104.494 11.9927 104.794 11.4407C105.106 10.8767 105.262 10.2287 105.262 9.49671C105.262 8.75271 105.106 8.10471 104.794 7.55271C104.494 7.00071 104.074 6.57471 103.534 6.27471C103.006 5.96271 102.406 5.80671 101.734 5.80671C101.074 5.80671 100.48 5.96271 99.9522 6.27471C99.4242 6.57471 99.0042 7.00071 98.6922 7.55271C98.3802 8.10471 98.2242 8.75271 98.2242 9.49671C98.2242 10.2287 98.3802 10.8767 98.6922 11.4407C99.0042 11.9927 99.4242 12.4247 99.9522 12.7367C100.48 13.0367 101.074 13.1867 101.734 13.1867ZM105.298 14.2307V11.3867L105.424 9.47871L105.244 7.57071V0.874712H106.522V14.2307H105.298Z" fill="#69BDAE"/>
</svg>
