<svg width="27" height="22" viewBox="0 0 27 22" fill="none" xmlns="http://www.w3.org/2000/svg">
<path d="M0.82472 0.514648H3.31058M26.0917 0.514648H3.31058M0.82472 3.61402H3.31058M26.0917 3.61402H3.31058M0.814392 17.9043H26.0917M0.814392 20.9158H26.0917M3.31058 0.514648V3.61402M0.82472 5.45217H4.23933C4.79161 5.45217 5.23933 5.89988 5.23933 6.45217V14.986C5.23933 15.5383 4.79161 15.986 4.23933 15.986H0.82472M26.0917 5.45217H22.4513C21.899 5.45217 21.4513 5.89988 21.4513 6.45217V14.986C21.4513 15.5383 21.899 15.986 22.4513 15.986H26.0917M9.94047 15.986H16.6705C17.7751 15.986 18.6705 15.0906 18.6705 13.986V7.45217C18.6705 6.3476 17.7751 5.45217 16.6705 5.45217H9.94047C8.83591 5.45217 7.94047 6.3476 7.94047 7.45217V13.986C7.94047 15.0906 8.83591 15.986 9.94047 15.986Z" stroke="#414141"/>
<path d="M7.32629 0.530273V3.5813M11.3811 0.530273V3.5813M15.4099 0.530273V3.5813M19.398 0.530273V3.5813M23.4993 0.530273V3.5813" stroke="#414141"/>
<path d="M7.3263 17.5303V20.5813M11.3811 17.5303V20.5813M15.4099 17.5303V20.5813M19.398 17.5303V20.5813M23.4993 17.5303V20.5813M3.28326 17.7662V20.8203" stroke="#414141"/>
</svg>
