<svg width="221" height="71" viewBox="0 0 221 71" fill="none" xmlns="http://www.w3.org/2000/svg">
<path d="M11 52.0861C93.5791 41.3679 124.077 41.3592 209 52.0259C144.719 46.164 80.4393 45.6572 11 52.0861Z" fill="#69BDAE"/>
<path d="M16.2483 34.35C14.3349 34.35 12.5033 34.0817 10.7533 33.545C9.00328 32.985 7.61495 32.2733 6.58828 31.41L8.16328 27.875C9.14328 28.645 10.3566 29.2867 11.8033 29.8C13.2499 30.3133 14.7316 30.57 16.2483 30.57C17.5316 30.57 18.5699 30.43 19.3633 30.15C20.1566 29.87 20.7399 29.4967 21.1133 29.03C21.4866 28.54 21.6733 27.9917 21.6733 27.385C21.6733 26.6383 21.4049 26.0433 20.8683 25.6C20.3316 25.1333 19.6316 24.7717 18.7683 24.515C17.9283 24.235 16.9833 23.9783 15.9333 23.745C14.9066 23.5117 13.8683 23.2433 12.8183 22.94C11.7916 22.6133 10.8466 22.205 9.98328 21.715C9.14328 21.2017 8.45495 20.525 7.91828 19.685C7.38161 18.845 7.11328 17.7717 7.11328 16.465C7.11328 15.135 7.46328 13.9217 8.16328 12.825C8.88661 11.705 9.97161 10.8183 11.4183 10.165C12.8883 9.48833 14.7433 9.15 16.9833 9.15C18.4533 9.15 19.9116 9.33667 21.3583 9.71C22.8049 10.0833 24.0649 10.62 25.1383 11.32L23.7033 14.855C22.6066 14.2017 21.4749 13.7233 20.3083 13.42C19.1416 13.0933 18.0216 12.93 16.9483 12.93C15.6883 12.93 14.6616 13.0817 13.8683 13.385C13.0983 13.6883 12.5266 14.085 12.1533 14.575C11.8033 15.065 11.6283 15.625 11.6283 16.255C11.6283 17.0017 11.8849 17.6083 12.3983 18.075C12.9349 18.5183 13.6233 18.8683 14.4633 19.125C15.3266 19.3817 16.2833 19.6383 17.3333 19.895C18.3833 20.1283 19.4216 20.3967 20.4483 20.7C21.4983 21.0033 22.4433 21.4 23.2833 21.89C24.1466 22.38 24.8349 23.045 25.3483 23.885C25.8849 24.725 26.1533 25.7867 26.1533 27.07C26.1533 28.3767 25.7916 29.59 25.0683 30.71C24.3683 31.8067 23.2833 32.6933 21.8133 33.37C20.3433 34.0233 18.4883 34.35 16.2483 34.35ZM30.245 34V8.03H34.62V34H30.245ZM49.1472 34.245C47.0705 34.245 45.2505 33.8367 43.6872 33.02C42.1472 32.18 40.9455 31.0367 40.0822 29.59C39.2422 28.1433 38.8222 26.4983 38.8222 24.655C38.8222 22.7883 39.2305 21.1433 40.0472 19.72C40.8872 18.2733 42.0305 17.1417 43.4772 16.325C44.9472 15.5083 46.6155 15.1 48.4822 15.1C50.3022 15.1 51.9239 15.4967 53.3472 16.29C54.7705 17.0833 55.8905 18.2033 56.7072 19.65C57.5239 21.0967 57.9322 22.8 57.9322 24.76C57.9322 24.9467 57.9205 25.1567 57.8972 25.39C57.8972 25.6233 57.8855 25.845 57.8622 26.055H42.2872V23.15H55.5522L53.8372 24.06C53.8605 22.9867 53.6389 22.0417 53.1722 21.225C52.7055 20.4083 52.0639 19.7667 51.2472 19.3C50.4539 18.8333 49.5322 18.6 48.4822 18.6C47.4089 18.6 46.4639 18.8333 45.6472 19.3C44.8539 19.7667 44.2239 20.42 43.7572 21.26C43.3139 22.0767 43.0922 23.045 43.0922 24.165V24.865C43.0922 25.985 43.3489 26.9767 43.8622 27.84C44.3755 28.7033 45.0989 29.3683 46.0322 29.835C46.9655 30.3017 48.0389 30.535 49.2522 30.535C50.3022 30.535 51.2472 30.3717 52.0872 30.045C52.9272 29.7183 53.6739 29.205 54.3272 28.505L56.6722 31.2C55.8322 32.18 54.7705 32.9383 53.4872 33.475C52.2272 33.9883 50.7805 34.245 49.1472 34.245ZM70.9196 34.245C68.843 34.245 67.023 33.8367 65.4596 33.02C63.9196 32.18 62.718 31.0367 61.8546 29.59C61.0146 28.1433 60.5946 26.4983 60.5946 24.655C60.5946 22.7883 61.003 21.1433 61.8196 19.72C62.6596 18.2733 63.803 17.1417 65.2496 16.325C66.7196 15.5083 68.388 15.1 70.2546 15.1C72.0746 15.1 73.6963 15.4967 75.1196 16.29C76.543 17.0833 77.663 18.2033 78.4796 19.65C79.2963 21.0967 79.7047 22.8 79.7047 24.76C79.7047 24.9467 79.693 25.1567 79.6696 25.39C79.6696 25.6233 79.658 25.845 79.6346 26.055H64.0596V23.15H77.3246L75.6096 24.06C75.633 22.9867 75.4113 22.0417 74.9446 21.225C74.478 20.4083 73.8363 19.7667 73.0196 19.3C72.2263 18.8333 71.3046 18.6 70.2546 18.6C69.1813 18.6 68.2363 18.8333 67.4196 19.3C66.6263 19.7667 65.9963 20.42 65.5296 21.26C65.0863 22.0767 64.8646 23.045 64.8646 24.165V24.865C64.8646 25.985 65.1213 26.9767 65.6346 27.84C66.148 28.7033 66.8713 29.3683 67.8046 29.835C68.738 30.3017 69.8113 30.535 71.0246 30.535C72.0746 30.535 73.0196 30.3717 73.8596 30.045C74.6996 29.7183 75.4463 29.205 76.0996 28.505L78.4446 31.2C77.6046 32.18 76.543 32.9383 75.2596 33.475C73.9996 33.9883 72.553 34.245 70.9196 34.245ZM94.2671 34.245C92.7504 34.245 91.3621 33.895 90.1021 33.195C88.8654 32.495 87.8738 31.445 87.1271 30.045C86.4038 28.6217 86.0421 26.825 86.0421 24.655C86.0421 22.4617 86.3921 20.665 87.0921 19.265C87.8154 17.865 88.7954 16.8267 90.0321 16.15C91.2688 15.45 92.6804 15.1 94.2671 15.1C96.1104 15.1 97.7321 15.4967 99.1321 16.29C100.555 17.0833 101.675 18.1917 102.492 19.615C103.332 21.0383 103.752 22.7183 103.752 24.655C103.752 26.5917 103.332 28.2833 102.492 29.73C101.675 31.1533 100.555 32.2617 99.1321 33.055C97.7321 33.8483 96.1104 34.245 94.2671 34.245ZM83.9071 40.79V15.31H88.0721V19.72L87.9321 24.69L88.2821 29.66V40.79H83.9071ZM93.7771 30.5C94.8271 30.5 95.7604 30.2667 96.5771 29.8C97.4171 29.3333 98.0821 28.6567 98.5721 27.77C99.0621 26.8833 99.3071 25.845 99.3071 24.655C99.3071 23.4417 99.0621 22.4033 98.5721 21.54C98.0821 20.6533 97.4171 19.9767 96.5771 19.51C95.7604 19.0433 94.8271 18.81 93.7771 18.81C92.7271 18.81 91.7821 19.0433 90.9421 19.51C90.1021 19.9767 89.4371 20.6533 88.9471 21.54C88.4571 22.4033 88.2121 23.4417 88.2121 24.655C88.2121 25.845 88.4571 26.8833 88.9471 27.77C89.4371 28.6567 90.1021 29.3333 90.9421 29.8C91.7821 30.2667 92.7271 30.5 93.7771 30.5ZM108.321 34V9.5H112.066L122.776 27.385H120.816L131.351 9.5H135.096L135.131 34H130.826L130.791 16.255H131.701L122.741 31.2H120.711L111.611 16.255H112.661V34H108.321ZM150.114 34.245C148.037 34.245 146.217 33.8367 144.654 33.02C143.114 32.18 141.912 31.0367 141.049 29.59C140.209 28.1433 139.789 26.4983 139.789 24.655C139.789 22.7883 140.197 21.1433 141.014 19.72C141.854 18.2733 142.997 17.1417 144.444 16.325C145.914 15.5083 147.582 15.1 149.449 15.1C151.269 15.1 152.891 15.4967 154.314 16.29C155.737 17.0833 156.857 18.2033 157.674 19.65C158.491 21.0967 158.899 22.8 158.899 24.76C158.899 24.9467 158.887 25.1567 158.864 25.39C158.864 25.6233 158.852 25.845 158.829 26.055H143.254V23.15H156.519L154.804 24.06C154.827 22.9867 154.606 22.0417 154.139 21.225C153.672 20.4083 153.031 19.7667 152.214 19.3C151.421 18.8333 150.499 18.6 149.449 18.6C148.376 18.6 147.431 18.8333 146.614 19.3C145.821 19.7667 145.191 20.42 144.724 21.26C144.281 22.0767 144.059 23.045 144.059 24.165V24.865C144.059 25.985 144.316 26.9767 144.829 27.84C145.342 28.7033 146.066 29.3683 146.999 29.835C147.932 30.3017 149.006 30.535 150.219 30.535C151.269 30.535 152.214 30.3717 153.054 30.045C153.894 29.7183 154.641 29.205 155.294 28.505L157.639 31.2C156.799 32.18 155.737 32.9383 154.454 33.475C153.194 33.9883 151.747 34.245 150.114 34.245ZM171.011 34.245C169.215 34.245 167.593 33.8483 166.146 33.055C164.723 32.2383 163.603 31.1183 162.786 29.695C161.97 28.2717 161.561 26.5917 161.561 24.655C161.561 22.7183 161.97 21.0383 162.786 19.615C163.603 18.1917 164.723 17.0833 166.146 16.29C167.593 15.4967 169.215 15.1 171.011 15.1C172.575 15.1 173.975 15.45 175.211 16.15C176.448 16.8267 177.428 17.865 178.151 19.265C178.875 20.665 179.236 22.4617 179.236 24.655C179.236 26.825 178.886 28.6217 178.186 30.045C177.486 31.445 176.518 32.495 175.281 33.195C174.045 33.895 172.621 34.245 171.011 34.245ZM171.536 30.5C172.586 30.5 173.52 30.2667 174.336 29.8C175.176 29.3333 175.841 28.6567 176.331 27.77C176.845 26.8833 177.101 25.845 177.101 24.655C177.101 23.4417 176.845 22.4033 176.331 21.54C175.841 20.6533 175.176 19.9767 174.336 19.51C173.52 19.0433 172.586 18.81 171.536 18.81C170.486 18.81 169.541 19.0433 168.701 19.51C167.885 19.9767 167.22 20.6533 166.706 21.54C166.216 22.4033 165.971 23.4417 165.971 24.655C165.971 25.845 166.216 26.8833 166.706 27.77C167.22 28.6567 167.885 29.3333 168.701 29.8C169.541 30.2667 170.486 30.5 171.536 30.5ZM177.206 34V29.59L177.381 24.62L177.031 19.65V8.03H181.371V34H177.206ZM187.13 34V15.31H191.505V34H187.13ZM189.335 12.23C188.518 12.23 187.841 11.9733 187.305 11.46C186.791 10.9467 186.535 10.3283 186.535 9.605C186.535 8.85833 186.791 8.24 187.305 7.75C187.841 7.23667 188.518 6.98 189.335 6.98C190.151 6.98 190.816 7.225 191.33 7.715C191.866 8.18167 192.135 8.77667 192.135 9.5C192.135 10.27 191.878 10.9233 191.365 11.46C190.851 11.9733 190.175 12.23 189.335 12.23ZM208.762 34V30.22L208.517 29.415V22.8C208.517 21.5167 208.132 20.525 207.362 19.825C206.592 19.1017 205.425 18.74 203.862 18.74C202.812 18.74 201.774 18.9033 200.747 19.23C199.744 19.5567 198.892 20.0117 198.192 20.595L196.477 17.41C197.48 16.64 198.67 16.0683 200.047 15.695C201.447 15.2983 202.894 15.1 204.387 15.1C207.094 15.1 209.182 15.7533 210.652 17.06C212.145 18.3433 212.892 20.3383 212.892 23.045V34H208.762ZM202.882 34.245C201.482 34.245 200.257 34.0117 199.207 33.545C198.157 33.055 197.34 32.39 196.757 31.55C196.197 30.6867 195.917 29.7183 195.917 28.645C195.917 27.595 196.162 26.65 196.652 25.81C197.165 24.97 197.994 24.305 199.137 23.815C200.28 23.325 201.797 23.08 203.687 23.08H209.112V25.985H204.002C202.509 25.985 201.505 26.23 200.992 26.72C200.479 27.1867 200.222 27.77 200.222 28.47C200.222 29.2633 200.537 29.8933 201.167 30.36C201.797 30.8267 202.672 31.06 203.792 31.06C204.865 31.06 205.822 30.815 206.662 30.325C207.525 29.835 208.144 29.1117 208.517 28.155L209.252 30.78C208.832 31.8767 208.074 32.7283 206.977 33.335C205.904 33.9417 204.539 34.245 202.882 34.245Z" fill="black"/>
</svg>
