<svg width="28" height="28" viewBox="0 0 28 28" fill="none" xmlns="http://www.w3.org/2000/svg">
<path d="M25.6334 13.5239C25.9481 20.4196 20.6132 26.2649 13.7174 26.5796C6.82164 26.8944 0.976372 21.5594 0.661629 14.6636C0.346886 7.76786 5.68185 1.92259 12.5776 1.60784C19.4734 1.2931 25.3186 6.62808 25.6334 13.5239ZM10.8018 14.2008C10.861 15.4963 11.9591 16.4985 13.2546 16.4394C14.55 16.3803 15.5523 15.2822 15.4932 13.9867C15.434 12.6912 14.3359 11.6889 13.0404 11.7481C11.745 11.8072 10.7427 12.9053 10.8018 14.2008Z" fill="#414141"/>
<mask id="path-2-inside-1_116_96" fill="white">
<path d="M7.29764 13.5452C6.95427 13.513 6.64666 13.7656 6.64754 14.1104C6.64928 14.7851 6.75604 15.4567 6.96514 16.1008C7.23865 16.9433 7.68147 17.721 8.26642 18.3862C8.85136 19.0513 9.56609 19.5899 10.3667 19.9689C10.9788 20.2586 11.6312 20.4503 12.3001 20.5383C12.6421 20.5832 12.9319 20.3104 12.9439 19.9658C12.9558 19.6211 12.685 19.3358 12.3442 19.283C11.8454 19.2058 11.3592 19.0569 10.901 18.84C10.2542 18.5339 9.67683 18.0988 9.20427 17.5614C8.73172 17.0241 8.37398 16.3958 8.15303 15.7152C7.9965 15.233 7.91096 14.7318 7.89813 14.2272C7.88936 13.8824 7.64101 13.5774 7.29764 13.5452Z"/>
</mask>
<path d="M7.29764 13.5452C6.95427 13.513 6.64666 13.7656 6.64754 14.1104C6.64928 14.7851 6.75604 15.4567 6.96514 16.1008C7.23865 16.9433 7.68147 17.721 8.26642 18.3862C8.85136 19.0513 9.56609 19.5899 10.3667 19.9689C10.9788 20.2586 11.6312 20.4503 12.3001 20.5383C12.6421 20.5832 12.9319 20.3104 12.9439 19.9658C12.9558 19.6211 12.685 19.3358 12.3442 19.283C11.8454 19.2058 11.3592 19.0569 10.901 18.84C10.2542 18.5339 9.67683 18.0988 9.20427 17.5614C8.73172 17.0241 8.37398 16.3958 8.15303 15.7152C7.9965 15.233 7.91096 14.7318 7.89813 14.2272C7.88936 13.8824 7.64101 13.5774 7.29764 13.5452Z" fill="#414141" stroke="white" stroke-width="2" mask="url(#path-2-inside-1_116_96)"/>
<mask id="path-3-inside-2_116_96" fill="white">
<path d="M4.45519 12.2193C4.12702 12.1486 3.80157 12.3571 3.75194 12.6891C3.55782 13.9875 3.63463 15.3144 3.98013 16.5855C4.37887 18.0525 5.12384 19.4024 6.15247 20.5218C7.1811 21.6411 8.46334 22.4973 9.89147 23.0183C11.1289 23.4698 12.4446 23.6582 13.7547 23.5743C14.0898 23.5529 14.325 23.2462 14.2822 22.9132C14.2393 22.5802 13.9346 22.3474 13.5994 22.3657C12.4826 22.4267 11.3628 22.261 10.3082 21.8762C9.06278 21.4219 7.94463 20.6753 7.04764 19.6991C6.15065 18.723 5.50101 17.5459 5.1533 16.2666C4.85884 15.1833 4.78819 14.0535 4.94317 12.9459C4.98969 12.6134 4.78337 12.2901 4.45519 12.2193Z"/>
</mask>
<path d="M4.45519 12.2193C4.12702 12.1486 3.80157 12.3571 3.75194 12.6891C3.55782 13.9875 3.63463 15.3144 3.98013 16.5855C4.37887 18.0525 5.12384 19.4024 6.15247 20.5218C7.1811 21.6411 8.46334 22.4973 9.89147 23.0183C11.1289 23.4698 12.4446 23.6582 13.7547 23.5743C14.0898 23.5529 14.325 23.2462 14.2822 22.9132C14.2393 22.5802 13.9346 22.3474 13.5994 22.3657C12.4826 22.4267 11.3628 22.261 10.3082 21.8762C9.06278 21.4219 7.94463 20.6753 7.04764 19.6991C6.15065 18.723 5.50101 17.5459 5.1533 16.2666C4.85884 15.1833 4.78819 14.0535 4.94317 12.9459C4.98969 12.6134 4.78337 12.2901 4.45519 12.2193Z" fill="#414141" stroke="white" stroke-width="2" mask="url(#path-3-inside-2_116_96)"/>
<path d="M18.5585 15.0542L17.7134 16.1687C17.5043 16.4444 17.5542 16.8367 17.8256 17.0513C18.1091 17.2755 18.5222 17.2185 18.7343 16.9259L19.5556 15.7936C19.746 15.5311 19.7022 15.1663 19.4551 14.9562C19.1835 14.7255 18.7738 14.7702 18.5585 15.0542Z" fill="white"/>
<path d="M24.5771 6.0955L19.7601 13.2869C19.6185 13.4983 19.6531 13.7815 19.8413 13.9527C20.0702 14.1607 20.4297 14.1208 20.6072 13.8675L25.5762 6.78025C25.7557 6.5242 25.7108 6.17358 25.4725 5.97106C25.1968 5.73673 24.7785 5.79486 24.5771 6.0955Z" fill="white"/>
<path d="M20.6552 13.7885L25.7902 6.12223V0.893301C25.7902 0.555005 26.0645 0.280762 26.4028 0.280762C26.7411 0.280762 27.0153 0.555004 27.0153 0.8933V6.52128L21.7258 14.5019C21.5069 14.8321 21.0444 14.8879 20.7533 14.6191C20.5205 14.4042 20.4788 14.0518 20.6552 13.7885Z" fill="#414141"/>
</svg>
