<svg width="218" height="71" viewBox="0 0 218 71" fill="none" xmlns="http://www.w3.org/2000/svg">
<path d="M20.1708 31.32C18.4214 31.32 16.7468 31.0747 15.1468 30.584C13.5468 30.072 12.2774 29.4213 11.3388 28.632L12.7788 25.4C13.6748 26.104 14.7841 26.6907 16.1068 27.16C17.4294 27.6293 18.7841 27.864 20.1708 27.864C21.3441 27.864 22.2934 27.736 23.0188 27.48C23.7441 27.224 24.2774 26.8827 24.6188 26.456C24.9601 26.008 25.1308 25.5067 25.1308 24.952C25.1308 24.2693 24.8854 23.7253 24.3948 23.32C23.9041 22.8933 23.2641 22.5627 22.4748 22.328C21.7068 22.072 20.8428 21.8373 19.8828 21.624C18.9441 21.4107 17.9948 21.1653 17.0348 20.888C16.0961 20.5893 15.2321 20.216 14.4427 19.768C13.6748 19.2987 13.0454 18.68 12.5548 17.912C12.0641 17.144 11.8188 16.1627 11.8188 14.968C11.8188 13.752 12.1388 12.6427 12.7788 11.64C13.4401 10.616 14.4321 9.80533 15.7548 9.208C17.0988 8.58933 18.7948 8.28 20.8428 8.28C22.1868 8.28 23.5201 8.45067 24.8428 8.792C26.1654 9.13333 27.3174 9.624 28.2987 10.264L26.9868 13.496C25.9841 12.8987 24.9494 12.4613 23.8828 12.184C22.8161 11.8853 21.7921 11.736 20.8108 11.736C19.6588 11.736 18.7201 11.8747 17.9948 12.152C17.2908 12.4293 16.7681 12.792 16.4268 13.24C16.1068 13.688 15.9468 14.2 15.9468 14.776C15.9468 15.4587 16.1814 16.0133 16.6508 16.44C17.1414 16.8453 17.7708 17.1653 18.5388 17.4C19.3281 17.6347 20.2028 17.8693 21.1628 18.104C22.1228 18.3173 23.0721 18.5627 24.0108 18.84C24.9708 19.1173 25.8348 19.48 26.6028 19.928C27.3921 20.376 28.0214 20.984 28.4908 21.752C28.9814 22.52 29.2268 23.4907 29.2268 24.664C29.2268 25.8587 28.8961 26.968 28.2348 27.992C27.5948 28.9947 26.6028 29.8053 25.2588 30.424C23.9148 31.0213 22.2188 31.32 20.1708 31.32ZM32.9678 31V7.256H36.9678V31H32.9678ZM50.2498 31.224C48.3511 31.224 46.6871 30.8507 45.2578 30.104C43.8498 29.336 42.7511 28.2907 41.9618 26.968C41.1938 25.6453 40.8098 24.1413 40.8098 22.456C40.8098 20.7493 41.1831 19.2453 41.9298 17.944C42.6978 16.6213 43.7431 15.5867 45.0658 14.84C46.4098 14.0933 47.9351 13.72 49.6418 13.72C51.3058 13.72 52.7884 14.0827 54.0898 14.808C55.3911 15.5333 56.4151 16.5573 57.1618 17.88C57.9084 19.2027 58.2818 20.76 58.2818 22.552C58.2818 22.7227 58.2711 22.9147 58.2498 23.128C58.2498 23.3413 58.2391 23.544 58.2178 23.736H43.9778V21.08H56.1058L54.5378 21.912C54.5591 20.9307 54.3564 20.0667 53.9298 19.32C53.5031 18.5733 52.9164 17.9867 52.1698 17.56C51.4444 17.1333 50.6018 16.92 49.6418 16.92C48.6604 16.92 47.7964 17.1333 47.0498 17.56C46.3244 17.9867 45.7484 18.584 45.3218 19.352C44.9164 20.0987 44.7138 20.984 44.7138 22.008V22.648C44.7138 23.672 44.9484 24.5787 45.4178 25.368C45.8871 26.1573 46.5484 26.7653 47.4018 27.192C48.2551 27.6187 49.2364 27.832 50.3458 27.832C51.3058 27.832 52.1698 27.6827 52.9378 27.384C53.7058 27.0853 54.3884 26.616 54.9858 25.976L57.1298 28.44C56.3618 29.336 55.3911 30.0293 54.2178 30.52C53.0658 30.9893 51.7431 31.224 50.2498 31.224ZM70.156 31.224C68.2573 31.224 66.5933 30.8507 65.164 30.104C63.756 29.336 62.6573 28.2907 61.868 26.968C61.1 25.6453 60.716 24.1413 60.716 22.456C60.716 20.7493 61.0893 19.2453 61.836 17.944C62.604 16.6213 63.6493 15.5867 64.972 14.84C66.316 14.0933 67.8413 13.72 69.548 13.72C71.212 13.72 72.6947 14.0827 73.996 14.808C75.2973 15.5333 76.3213 16.5573 77.068 17.88C77.8147 19.2027 78.188 20.76 78.188 22.552C78.188 22.7227 78.1773 22.9147 78.156 23.128C78.156 23.3413 78.1453 23.544 78.124 23.736H63.884V21.08H76.012L74.444 21.912C74.4653 20.9307 74.2627 20.0667 73.836 19.32C73.4093 18.5733 72.8227 17.9867 72.076 17.56C71.3507 17.1333 70.508 16.92 69.548 16.92C68.5667 16.92 67.7027 17.1333 66.956 17.56C66.2307 17.9867 65.6547 18.584 65.228 19.352C64.8227 20.0987 64.62 20.984 64.62 22.008V22.648C64.62 23.672 64.8547 24.5787 65.324 25.368C65.7933 26.1573 66.4547 26.7653 67.308 27.192C68.1613 27.6187 69.1427 27.832 70.252 27.832C71.212 27.832 72.076 27.6827 72.844 27.384C73.612 27.0853 74.2947 26.616 74.892 25.976L77.036 28.44C76.268 29.336 75.2973 30.0293 74.124 30.52C72.972 30.9893 71.6493 31.224 70.156 31.224ZM91.5023 31.224C90.1156 31.224 88.8463 30.904 87.6943 30.264C86.5636 29.624 85.6569 28.664 84.9743 27.384C84.3129 26.0827 83.9823 24.44 83.9823 22.456C83.9823 20.4507 84.3023 18.808 84.9423 17.528C85.6036 16.248 86.4996 15.2987 87.6302 14.68C88.7609 14.04 90.0516 13.72 91.5023 13.72C93.1876 13.72 94.6703 14.0827 95.9503 14.808C97.2516 15.5333 98.2756 16.5467 99.0223 17.848C99.7903 19.1493 100.174 20.6853 100.174 22.456C100.174 24.2267 99.7903 25.7733 99.0223 27.096C98.2756 28.3973 97.2516 29.4107 95.9503 30.136C94.6703 30.8613 93.1876 31.224 91.5023 31.224ZM82.0303 37.208V13.912H85.8383V17.944L85.7103 22.488L86.0303 27.032V37.208H82.0303ZM91.0543 27.8C92.0143 27.8 92.8676 27.5867 93.6143 27.16C94.3823 26.7333 94.9903 26.1147 95.4383 25.304C95.8863 24.4933 96.1103 23.544 96.1103 22.456C96.1103 21.3467 95.8863 20.3973 95.4383 19.608C94.9903 18.7973 94.3823 18.1787 93.6143 17.752C92.8676 17.3253 92.0143 17.112 91.0543 17.112C90.0943 17.112 89.2303 17.3253 88.4623 17.752C87.6943 18.1787 87.0863 18.7973 86.6383 19.608C86.1903 20.3973 85.9663 21.3467 85.9663 22.456C85.9663 23.544 86.1903 24.4933 86.6383 25.304C87.0863 26.1147 87.6943 26.7333 88.4623 27.16C89.2303 27.5867 90.0943 27.8 91.0543 27.8ZM111.296 31.32C109.546 31.32 107.872 31.0747 106.272 30.584C104.672 30.072 103.402 29.4213 102.464 28.632L103.904 25.4C104.8 26.104 105.909 26.6907 107.232 27.16C108.554 27.6293 109.909 27.864 111.296 27.864C112.469 27.864 113.418 27.736 114.144 27.48C114.869 27.224 115.402 26.8827 115.744 26.456C116.085 26.008 116.256 25.5067 116.256 24.952C116.256 24.2693 116.01 23.7253 115.52 23.32C115.029 22.8933 114.389 22.5627 113.6 22.328C112.832 22.072 111.968 21.8373 111.008 21.624C110.069 21.4107 109.12 21.1653 108.16 20.888C107.221 20.5893 106.357 20.216 105.568 19.768C104.8 19.2987 104.17 18.68 103.68 17.912C103.189 17.144 102.944 16.1627 102.944 14.968C102.944 13.752 103.264 12.6427 103.904 11.64C104.565 10.616 105.557 9.80533 106.88 9.208C108.224 8.58933 109.92 8.28 111.968 8.28C113.312 8.28 114.645 8.45067 115.968 8.792C117.29 9.13333 118.442 9.624 119.424 10.264L118.112 13.496C117.109 12.8987 116.074 12.4613 115.008 12.184C113.941 11.8853 112.917 11.736 111.936 11.736C110.784 11.736 109.845 11.8747 109.12 12.152C108.416 12.4293 107.893 12.792 107.552 13.24C107.232 13.688 107.072 14.2 107.072 14.776C107.072 15.4587 107.306 16.0133 107.776 16.44C108.266 16.8453 108.896 17.1653 109.664 17.4C110.453 17.6347 111.328 17.8693 112.288 18.104C113.248 18.3173 114.197 18.5627 115.136 18.84C116.096 19.1173 116.96 19.48 117.728 19.928C118.517 20.376 119.146 20.984 119.616 21.752C120.106 22.52 120.352 23.4907 120.352 24.664C120.352 25.8587 120.021 26.968 119.36 27.992C118.72 28.9947 117.728 29.8053 116.384 30.424C115.04 31.0213 113.344 31.32 111.296 31.32ZM131.773 31.224C130.023 31.224 128.466 30.8507 127.101 30.104C125.735 29.336 124.658 28.2907 123.869 26.968C123.079 25.6453 122.685 24.1413 122.685 22.456C122.685 20.7493 123.079 19.2453 123.869 17.944C124.658 16.6213 125.735 15.5867 127.101 14.84C128.466 14.0933 130.023 13.72 131.773 13.72C133.543 13.72 135.111 14.0933 136.477 14.84C137.863 15.5867 138.941 16.6107 139.709 17.912C140.498 19.2133 140.893 20.728 140.893 22.456C140.893 24.1413 140.498 25.6453 139.709 26.968C138.941 28.2907 137.863 29.336 136.477 30.104C135.111 30.8507 133.543 31.224 131.773 31.224ZM131.773 27.8C132.754 27.8 133.629 27.5867 134.397 27.16C135.165 26.7333 135.762 26.1147 136.189 25.304C136.637 24.4933 136.861 23.544 136.861 22.456C136.861 21.3467 136.637 20.3973 136.189 19.608C135.762 18.7973 135.165 18.1787 134.397 17.752C133.629 17.3253 132.765 17.112 131.805 17.112C130.823 17.112 129.949 17.3253 129.181 17.752C128.434 18.1787 127.837 18.7973 127.389 19.608C126.941 20.3973 126.717 21.3467 126.717 22.456C126.717 23.544 126.941 24.4933 127.389 25.304C127.837 26.1147 128.434 26.7333 129.181 27.16C129.949 27.5867 130.813 27.8 131.773 27.8ZM151.95 31.224C150.499 31.224 149.219 30.9573 148.11 30.424C147 29.8693 146.136 29.0373 145.518 27.928C144.899 26.7973 144.59 25.3787 144.59 23.672V13.912H148.59V23.128C148.59 24.664 148.931 25.816 149.614 26.584C150.318 27.3307 151.31 27.704 152.59 27.704C153.528 27.704 154.339 27.512 155.022 27.128C155.726 26.744 156.27 26.168 156.654 25.4C157.059 24.632 157.262 23.6827 157.262 22.552V13.912H161.262V31H157.454V26.392L158.126 27.8C157.55 28.9093 156.707 29.7627 155.598 30.36C154.488 30.936 153.272 31.224 151.95 31.224ZM176.195 13.72C177.56 13.72 178.776 13.9867 179.843 14.52C180.931 15.0533 181.784 15.8747 182.403 16.984C183.022 18.072 183.331 19.48 183.331 21.208V31H179.331V21.72C179.331 20.2053 178.968 19.0747 178.243 18.328C177.539 17.5813 176.547 17.208 175.267 17.208C174.328 17.208 173.496 17.4 172.771 17.784C172.046 18.168 171.48 18.744 171.075 19.512C170.691 20.2587 170.499 21.208 170.499 22.36V31H166.499V13.912H170.307V18.52L169.635 17.112C170.232 16.024 171.096 15.192 172.227 14.616C173.379 14.0187 174.702 13.72 176.195 13.72ZM195.669 31.224C194.026 31.224 192.543 30.8613 191.221 30.136C189.919 29.3893 188.895 28.3653 188.149 27.064C187.402 25.7627 187.029 24.2267 187.029 22.456C187.029 20.6853 187.402 19.1493 188.149 17.848C188.895 16.5467 189.919 15.5333 191.221 14.808C192.543 14.0827 194.026 13.72 195.669 13.72C197.098 13.72 198.378 14.04 199.509 14.68C200.639 15.2987 201.535 16.248 202.197 17.528C202.858 18.808 203.189 20.4507 203.189 22.456C203.189 24.44 202.869 26.0827 202.229 27.384C201.589 28.664 200.703 29.624 199.573 30.264C198.442 30.904 197.141 31.224 195.669 31.224ZM196.149 27.8C197.109 27.8 197.962 27.5867 198.709 27.16C199.477 26.7333 200.085 26.1147 200.533 25.304C201.002 24.4933 201.237 23.544 201.237 22.456C201.237 21.3467 201.002 20.3973 200.533 19.608C200.085 18.7973 199.477 18.1787 198.709 17.752C197.962 17.3253 197.109 17.112 196.149 17.112C195.189 17.112 194.325 17.3253 193.557 17.752C192.81 18.1787 192.202 18.7973 191.733 19.608C191.285 20.3973 191.061 21.3467 191.061 22.456C191.061 23.544 191.285 24.4933 191.733 25.304C192.202 26.1147 192.81 26.7333 193.557 27.16C194.325 27.5867 195.189 27.8 196.149 27.8ZM201.333 31V26.968L201.493 22.424L201.173 17.88V7.256H205.141V31H201.333Z" fill="black"/>
<path d="M10 48.6212C92.5791 37.903 123.077 37.8944 208 48.5611C143.719 42.6991 79.4393 42.1924 10 48.6212Z" fill="#69BDAE"/>
</svg>
