<svg width="107" height="18" viewBox="0 0 107 18" fill="none" xmlns="http://www.w3.org/2000/svg">
<path d="M5.17504 14.108C4.23904 14.108 3.33904 13.958 2.47504 13.658C1.62304 13.346 0.96304 12.95 0.49504 12.47L1.01704 11.444C1.46104 11.876 2.05504 12.242 2.79904 12.542C3.55504 12.83 4.34704 12.974 5.17504 12.974C5.96704 12.974 6.60904 12.878 7.10104 12.686C7.60504 12.482 7.97104 12.212 8.19904 11.876C8.43904 11.54 8.55904 11.168 8.55904 10.76C8.55904 10.268 8.41504 9.872 8.12704 9.572C7.85104 9.272 7.48504 9.038 7.02904 8.87C6.57304 8.69 6.06904 8.534 5.51704 8.402C4.96504 8.27 4.41304 8.132 3.86104 7.988C3.30904 7.832 2.79904 7.628 2.33104 7.376C1.87504 7.124 1.50304 6.794 1.21504 6.386C0.93904 5.966 0.80104 5.42 0.80104 4.748C0.80104 4.124 0.96304 3.554 1.28704 3.038C1.62304 2.51 2.13304 2.09 2.81704 1.778C3.50104 1.454 4.37704 1.292 5.44504 1.292C6.15304 1.292 6.85504 1.394 7.55104 1.598C8.24704 1.79 8.84704 2.06 9.35104 2.408L8.90104 3.47C8.36104 3.11 7.78504 2.846 7.17304 2.678C6.57304 2.51 5.99104 2.426 5.42704 2.426C4.67104 2.426 4.04704 2.528 3.55504 2.732C3.06304 2.936 2.69704 3.212 2.45704 3.56C2.22904 3.896 2.11504 4.28 2.11504 4.712C2.11504 5.204 2.25304 5.6 2.52904 5.9C2.81704 6.2 3.18904 6.434 3.64504 6.602C4.11304 6.77 4.62304 6.92 5.17504 7.052C5.72704 7.184 6.27304 7.328 6.81304 7.484C7.36504 7.64 7.86904 7.844 8.32504 8.096C8.79304 8.336 9.16504 8.66 9.44104 9.068C9.72904 9.476 9.87304 10.01 9.87304 10.67C9.87304 11.282 9.70504 11.852 9.36904 12.38C9.03304 12.896 8.51704 13.316 7.82104 13.64C7.13704 13.952 6.25504 14.108 5.17504 14.108ZM12.5053 14V0.643999H13.7833V14H12.5053ZM21.3532 14.09C20.3692 14.09 19.5052 13.886 18.7612 13.478C18.0172 13.058 17.4352 12.488 17.0152 11.768C16.5952 11.036 16.3852 10.202 16.3852 9.266C16.3852 8.33 16.5832 7.502 16.9792 6.782C17.3872 6.062 17.9392 5.498 18.6352 5.09C19.3432 4.67 20.1352 4.46 21.0112 4.46C21.8992 4.46 22.6852 4.664 23.3692 5.072C24.0652 5.468 24.6112 6.032 25.0072 6.764C25.4032 7.484 25.6012 8.318 25.6012 9.266C25.6012 9.326 25.5952 9.392 25.5832 9.464C25.5832 9.524 25.5832 9.59 25.5832 9.662H17.3572V8.708H24.8992L24.3952 9.086C24.3952 8.402 24.2452 7.796 23.9452 7.268C23.6572 6.728 23.2612 6.308 22.7572 6.008C22.2532 5.708 21.6712 5.558 21.0112 5.558C20.3632 5.558 19.7812 5.708 19.2652 6.008C18.7492 6.308 18.3472 6.728 18.0592 7.268C17.7712 7.808 17.6272 8.426 17.6272 9.122V9.32C17.6272 10.04 17.7832 10.676 18.0952 11.228C18.4192 11.768 18.8632 12.194 19.4272 12.506C20.0032 12.806 20.6572 12.956 21.3892 12.956C21.9652 12.956 22.4992 12.854 22.9912 12.65C23.4952 12.446 23.9272 12.134 24.2872 11.714L25.0072 12.542C24.5872 13.046 24.0592 13.43 23.4232 13.694C22.7992 13.958 22.1092 14.09 21.3532 14.09ZM32.2165 14.09C31.2325 14.09 30.3685 13.886 29.6245 13.478C28.8805 13.058 28.2985 12.488 27.8785 11.768C27.4585 11.036 27.2485 10.202 27.2485 9.266C27.2485 8.33 27.4465 7.502 27.8425 6.782C28.2505 6.062 28.8025 5.498 29.4985 5.09C30.2065 4.67 30.9985 4.46 31.8745 4.46C32.7625 4.46 33.5485 4.664 34.2325 5.072C34.9285 5.468 35.4745 6.032 35.8705 6.764C36.2665 7.484 36.4645 8.318 36.4645 9.266C36.4645 9.326 36.4585 9.392 36.4465 9.464C36.4465 9.524 36.4465 9.59 36.4465 9.662H28.2205V8.708H35.7625L35.2585 9.086C35.2585 8.402 35.1085 7.796 34.8085 7.268C34.5205 6.728 34.1245 6.308 33.6205 6.008C33.1165 5.708 32.5345 5.558 31.8745 5.558C31.2265 5.558 30.6445 5.708 30.1285 6.008C29.6125 6.308 29.2105 6.728 28.9225 7.268C28.6345 7.808 28.4905 8.426 28.4905 9.122V9.32C28.4905 10.04 28.6465 10.676 28.9585 11.228C29.2825 11.768 29.7265 12.194 30.2905 12.506C30.8665 12.806 31.5205 12.956 32.2525 12.956C32.8285 12.956 33.3625 12.854 33.8545 12.65C34.3585 12.446 34.7905 12.134 35.1505 11.714L35.8705 12.542C35.4505 13.046 34.9225 13.43 34.2865 13.694C33.6625 13.958 32.9725 14.09 32.2165 14.09ZM43.9438 14.09C43.1278 14.09 42.3898 13.904 41.7298 13.532C41.0698 13.148 40.5418 12.602 40.1458 11.894C39.7618 11.174 39.5698 10.298 39.5698 9.266C39.5698 8.234 39.7618 7.364 40.1458 6.656C40.5298 5.936 41.0518 5.39 41.7118 5.018C42.3718 4.646 43.1158 4.46 43.9438 4.46C44.8438 4.46 45.6478 4.664 46.3558 5.072C47.0758 5.468 47.6398 6.032 48.0478 6.764C48.4558 7.484 48.6598 8.318 48.6598 9.266C48.6598 10.226 48.4558 11.066 48.0478 11.786C47.6398 12.506 47.0758 13.07 46.3558 13.478C45.6478 13.886 44.8438 14.09 43.9438 14.09ZM39.0658 17.492V4.55H40.2898V7.394L40.1638 9.284L40.3438 11.192V17.492H39.0658ZM43.8538 12.956C44.5258 12.956 45.1258 12.806 45.6538 12.506C46.1818 12.194 46.6018 11.762 46.9138 11.21C47.2258 10.646 47.3818 9.998 47.3818 9.266C47.3818 8.534 47.2258 7.892 46.9138 7.34C46.6018 6.788 46.1818 6.356 45.6538 6.044C45.1258 5.732 44.5258 5.576 43.8538 5.576C43.1818 5.576 42.5758 5.732 42.0358 6.044C41.5078 6.356 41.0878 6.788 40.7758 7.34C40.4758 7.892 40.3258 8.534 40.3258 9.266C40.3258 9.998 40.4758 10.646 40.7758 11.21C41.0878 11.762 41.5078 12.194 42.0358 12.506C42.5758 12.806 43.1818 12.956 43.8538 12.956ZM55.009 14.108C54.073 14.108 53.173 13.958 52.309 13.658C51.457 13.346 50.797 12.95 50.329 12.47L50.851 11.444C51.295 11.876 51.889 12.242 52.633 12.542C53.389 12.83 54.181 12.974 55.009 12.974C55.801 12.974 56.443 12.878 56.935 12.686C57.439 12.482 57.805 12.212 58.033 11.876C58.273 11.54 58.393 11.168 58.393 10.76C58.393 10.268 58.249 9.872 57.961 9.572C57.685 9.272 57.319 9.038 56.863 8.87C56.407 8.69 55.903 8.534 55.351 8.402C54.799 8.27 54.247 8.132 53.695 7.988C53.143 7.832 52.633 7.628 52.165 7.376C51.709 7.124 51.337 6.794 51.049 6.386C50.773 5.966 50.635 5.42 50.635 4.748C50.635 4.124 50.797 3.554 51.121 3.038C51.457 2.51 51.967 2.09 52.651 1.778C53.335 1.454 54.211 1.292 55.279 1.292C55.987 1.292 56.689 1.394 57.385 1.598C58.081 1.79 58.681 2.06 59.185 2.408L58.735 3.47C58.195 3.11 57.619 2.846 57.007 2.678C56.407 2.51 55.825 2.426 55.261 2.426C54.505 2.426 53.881 2.528 53.389 2.732C52.897 2.936 52.531 3.212 52.291 3.56C52.063 3.896 51.949 4.28 51.949 4.712C51.949 5.204 52.087 5.6 52.363 5.9C52.651 6.2 53.023 6.434 53.479 6.602C53.947 6.77 54.457 6.92 55.009 7.052C55.561 7.184 56.107 7.328 56.647 7.484C57.199 7.64 57.703 7.844 58.159 8.096C58.627 8.336 58.999 8.66 59.275 9.068C59.563 9.476 59.707 10.01 59.707 10.67C59.707 11.282 59.539 11.852 59.203 12.38C58.867 12.896 58.351 13.316 57.655 13.64C56.971 13.952 56.089 14.108 55.009 14.108ZM66.1912 14.09C65.2792 14.09 64.4572 13.886 63.7252 13.478C63.0052 13.058 62.4352 12.488 62.0152 11.768C61.5952 11.036 61.3852 10.202 61.3852 9.266C61.3852 8.318 61.5952 7.484 62.0152 6.764C62.4352 6.044 63.0052 5.48 63.7252 5.072C64.4452 4.664 65.2672 4.46 66.1912 4.46C67.1272 4.46 67.9552 4.664 68.6752 5.072C69.4072 5.48 69.9772 6.044 70.3852 6.764C70.8052 7.484 71.0152 8.318 71.0152 9.266C71.0152 10.202 70.8052 11.036 70.3852 11.768C69.9772 12.488 69.4072 13.058 68.6752 13.478C67.9432 13.886 67.1152 14.09 66.1912 14.09ZM66.1912 12.956C66.8752 12.956 67.4812 12.806 68.0092 12.506C68.5372 12.194 68.9512 11.762 69.2512 11.21C69.5632 10.646 69.7192 9.998 69.7192 9.266C69.7192 8.522 69.5632 7.874 69.2512 7.322C68.9512 6.77 68.5372 6.344 68.0092 6.044C67.4812 5.732 66.8812 5.576 66.2092 5.576C65.5372 5.576 64.9372 5.732 64.4092 6.044C63.8812 6.344 63.4612 6.77 63.1492 7.322C62.8372 7.874 62.6812 8.522 62.6812 9.266C62.6812 9.998 62.8372 10.646 63.1492 11.21C63.4612 11.762 63.8812 12.194 64.4092 12.506C64.9372 12.806 65.5312 12.956 66.1912 12.956ZM77.5304 14.09C76.7264 14.09 76.0244 13.94 75.4244 13.64C74.8244 13.34 74.3564 12.89 74.0204 12.29C73.6964 11.69 73.5344 10.94 73.5344 10.04V4.55H74.8124V9.896C74.8124 10.904 75.0584 11.666 75.5504 12.182C76.0544 12.686 76.7564 12.938 77.6564 12.938C78.3164 12.938 78.8864 12.806 79.3664 12.542C79.8584 12.266 80.2304 11.87 80.4824 11.354C80.7464 10.838 80.8784 10.22 80.8784 9.5V4.55H82.1564V14H80.9324V11.408L81.1304 11.876C80.8304 12.572 80.3624 13.118 79.7264 13.514C79.1024 13.898 78.3704 14.09 77.5304 14.09ZM90.5421 4.46C91.3101 4.46 91.9822 4.61 92.5582 4.91C93.1461 5.198 93.6021 5.642 93.9261 6.242C94.2621 6.842 94.4301 7.598 94.4301 8.51V14H93.1522V8.636C93.1522 7.64 92.9002 6.89 92.3962 6.386C91.9042 5.87 91.2081 5.612 90.3081 5.612C89.6361 5.612 89.0481 5.75 88.5441 6.026C88.0521 6.29 87.6681 6.68 87.3921 7.196C87.1281 7.7 86.9961 8.312 86.9961 9.032V14H85.7181V4.55H86.9421V7.142L86.7441 6.656C87.0441 5.972 87.5241 5.438 88.1841 5.054C88.8441 4.658 89.6301 4.46 90.5421 4.46ZM101.644 14.09C100.744 14.09 99.9342 13.886 99.2142 13.478C98.5062 13.07 97.9482 12.506 97.5402 11.786C97.1322 11.054 96.9282 10.214 96.9282 9.266C96.9282 8.306 97.1322 7.466 97.5402 6.746C97.9482 6.026 98.5062 5.468 99.2142 5.072C99.9342 4.664 100.744 4.46 101.644 4.46C102.472 4.46 103.21 4.646 103.858 5.018C104.518 5.39 105.04 5.936 105.424 6.656C105.82 7.364 106.018 8.234 106.018 9.266C106.018 10.286 105.826 11.156 105.442 11.876C105.058 12.596 104.536 13.148 103.876 13.532C103.228 13.904 102.484 14.09 101.644 14.09ZM101.734 12.956C102.406 12.956 103.006 12.806 103.534 12.506C104.074 12.194 104.494 11.762 104.794 11.21C105.106 10.646 105.262 9.998 105.262 9.266C105.262 8.522 105.106 7.874 104.794 7.322C104.494 6.77 104.074 6.344 103.534 6.044C103.006 5.732 102.406 5.576 101.734 5.576C101.074 5.576 100.48 5.732 99.9522 6.044C99.4242 6.344 99.0042 6.77 98.6922 7.322C98.3802 7.874 98.2242 8.522 98.2242 9.266C98.2242 9.998 98.3802 10.646 98.6922 11.21C99.0042 11.762 99.4242 12.194 99.9522 12.506C100.48 12.806 101.074 12.956 101.734 12.956ZM105.298 14V11.156L105.424 9.248L105.244 7.34V0.643999H106.522V14H105.298Z" fill="#5B5858"/>
</svg>
