<svg width="28" height="28" viewBox="0 0 28 28" fill="none" xmlns="http://www.w3.org/2000/svg">
<path d="M25.9014 13.8442C26.2161 20.7399 20.8812 26.5852 13.9854 26.9C7.08964 27.2147 1.24438 21.8797 0.929634 14.9839C0.614891 8.08818 5.94986 2.2429 12.8456 1.92816C19.7414 1.61341 25.5866 6.94839 25.9014 13.8442ZM11.0698 14.5211C11.129 15.8166 12.2271 16.8189 13.5226 16.7597C14.818 16.7006 15.8203 15.6025 15.7612 14.307C15.702 13.0115 14.6039 12.0093 13.3084 12.0684C12.013 12.1275 11.0107 13.2256 11.0698 14.5211Z" fill="#77C7A4"/>
<mask id="path-2-inside-1_116_113" fill="white">
<path d="M7.56565 13.8655C7.22228 13.8333 6.91466 14.0859 6.91555 14.4308C6.91728 15.1054 7.02405 15.777 7.23315 16.4211C7.50666 17.2636 7.94948 18.0413 8.53442 18.7065C9.11937 19.3716 9.8341 19.9102 10.6347 20.2892C11.2468 20.5789 11.8992 20.7706 12.5682 20.8586C12.9101 20.9036 13.1999 20.6307 13.2119 20.2861C13.2238 19.9414 12.953 19.6561 12.6122 19.6033C12.1134 19.5261 11.6272 19.3772 11.169 19.1603C10.5222 18.8542 9.94483 18.4191 9.47228 17.8817C8.99972 17.3444 8.64199 16.7161 8.42103 16.0355C8.26451 15.5533 8.17896 15.0521 8.16613 14.5475C8.15737 14.2027 7.90902 13.8977 7.56565 13.8655Z"/>
</mask>
<path d="M7.56565 13.8655C7.22228 13.8333 6.91466 14.0859 6.91555 14.4308C6.91728 15.1054 7.02405 15.777 7.23315 16.4211C7.50666 17.2636 7.94948 18.0413 8.53442 18.7065C9.11937 19.3716 9.8341 19.9102 10.6347 20.2892C11.2468 20.5789 11.8992 20.7706 12.5682 20.8586C12.9101 20.9036 13.1999 20.6307 13.2119 20.2861C13.2238 19.9414 12.953 19.6561 12.6122 19.6033C12.1134 19.5261 11.6272 19.3772 11.169 19.1603C10.5222 18.8542 9.94483 18.4191 9.47228 17.8817C8.99972 17.3444 8.64199 16.7161 8.42103 16.0355C8.26451 15.5533 8.17896 15.0521 8.16613 14.5475C8.15737 14.2027 7.90902 13.8977 7.56565 13.8655Z" fill="#77C7A4" stroke="white" stroke-width="2" mask="url(#path-2-inside-1_116_113)"/>
<mask id="path-3-inside-2_116_113" fill="white">
<path d="M4.7232 12.5396C4.39503 12.4689 4.06958 12.6774 4.01994 13.0094C3.82583 14.3078 3.90264 15.6347 4.24813 16.9058C4.64687 18.3728 5.39185 19.7227 6.42047 20.8421C7.4491 21.9614 8.73134 22.8176 10.1595 23.3386C11.3969 23.7901 12.7126 23.9786 14.0227 23.8946C14.3578 23.8732 14.593 23.5665 14.5502 23.2335C14.5073 22.9005 14.2026 22.6677 13.8674 22.686C12.7506 22.747 11.6308 22.5813 10.5762 22.1965C9.33079 21.7422 8.21264 20.9956 7.31565 20.0195C6.41866 19.0433 5.76902 17.8662 5.42131 16.587C5.12685 15.5036 5.0562 14.3738 5.21118 13.2662C5.25769 12.9337 5.05137 12.6104 4.7232 12.5396Z"/>
</mask>
<path d="M4.7232 12.5396C4.39503 12.4689 4.06958 12.6774 4.01994 13.0094C3.82583 14.3078 3.90264 15.6347 4.24813 16.9058C4.64687 18.3728 5.39185 19.7227 6.42047 20.8421C7.4491 21.9614 8.73134 22.8176 10.1595 23.3386C11.3969 23.7901 12.7126 23.9786 14.0227 23.8946C14.3578 23.8732 14.593 23.5665 14.5502 23.2335C14.5073 22.9005 14.2026 22.6677 13.8674 22.686C12.7506 22.747 11.6308 22.5813 10.5762 22.1965C9.33079 21.7422 8.21264 20.9956 7.31565 20.0195C6.41866 19.0433 5.76902 17.8662 5.42131 16.587C5.12685 15.5036 5.0562 14.3738 5.21118 13.2662C5.25769 12.9337 5.05137 12.6104 4.7232 12.5396Z" fill="#77C7A4" stroke="white" stroke-width="2" mask="url(#path-3-inside-2_116_113)"/>
<path d="M18.8265 15.3755L17.9814 16.49C17.7723 16.7657 17.8222 17.158 18.0936 17.3726C18.3771 17.5968 18.7902 17.5398 19.0023 17.2472L19.8236 16.1149C20.014 15.8524 19.9702 15.4876 19.7231 15.2775C19.4515 15.0467 19.0418 15.0915 18.8265 15.3755Z" fill="white"/>
<path d="M24.8451 6.41679L20.0281 13.6082C19.8865 13.8196 19.9211 14.1028 20.1093 14.274C20.3382 14.482 20.6977 14.442 20.8752 14.1888L25.8442 7.10154C26.0237 6.84549 25.9788 6.49487 25.7405 6.29235C25.4648 6.05801 25.0465 6.11615 24.8451 6.41679Z" fill="white"/>
<path d="M20.9232 14.1093L26.0582 6.44303V1.2141C26.0582 0.875806 26.3325 0.601562 26.6708 0.601562C27.0091 0.601562 27.2833 0.875805 27.2833 1.2141V6.84208L21.9938 14.8227C21.7749 15.1529 21.3124 15.2087 21.0213 14.9399C20.7885 14.725 20.7469 14.3726 20.9232 14.1093Z" fill="#77C7A4"/>
</svg>
