<svg width="26" height="22" viewBox="0 0 26 22" fill="none" xmlns="http://www.w3.org/2000/svg">
<path d="M0.380262 0.852051H2.86612M25.6472 0.852051H2.86612M0.380262 3.95142H2.86612M25.6472 3.95142H2.86612M0.369934 18.2417H25.6472M0.369934 21.2532H25.6472M2.86612 0.852051V3.95142M0.380262 5.78957H3.79487C4.34715 5.78957 4.79487 6.23729 4.79487 6.78957V15.3234C4.79487 15.8757 4.34715 16.3234 3.79487 16.3234H0.380262M25.6472 5.78957H22.0068C21.4545 5.78957 21.0068 6.23729 21.0068 6.78957V15.3234C21.0068 15.8757 21.4545 16.3234 22.0068 16.3234H25.6472M9.49602 16.3234H16.2261C17.3307 16.3234 18.2261 15.428 18.2261 14.3234V7.78957C18.2261 6.685 17.3307 5.78957 16.2261 5.78957H9.49602C8.39145 5.78957 7.49602 6.685 7.49602 7.78957V14.3234C7.49602 15.428 8.39145 16.3234 9.49602 16.3234Z" stroke="#77C7A4"/>
<path d="M6.88184 0.868164V3.91919M10.9367 0.868164V3.91919M14.9654 0.868164V3.91919M18.9535 0.868164V3.91919M23.0549 0.868164V3.91919" stroke="#77C7A4"/>
<path d="M6.88184 17.8682V20.9192M10.9367 17.8682V20.9192M14.9654 17.8682V20.9192M18.9535 17.8682V20.9192M23.0549 17.8682V20.9192M2.83881 18.1041V21.1581" stroke="#77C7A4"/>
</svg>
