<svg width="104" height="18" viewBox="0 0 104 18" fill="none" xmlns="http://www.w3.org/2000/svg">
<path d="M5.52449 13.8387C4.58849 13.8387 3.68849 13.6887 2.82449 13.3887C1.97249 13.0767 1.31249 12.6807 0.844486 12.2007L1.36649 11.1747C1.81049 11.6067 2.40449 11.9727 3.14849 12.2727C3.90449 12.5607 4.69649 12.7047 5.52449 12.7047C6.31649 12.7047 6.95849 12.6087 7.45049 12.4167C7.95449 12.2127 8.32049 11.9427 8.54849 11.6067C8.78849 11.2707 8.90849 10.8987 8.90849 10.4907C8.90849 9.99871 8.76449 9.60271 8.47649 9.30271C8.20049 9.00271 7.83449 8.76871 7.37849 8.60071C6.92249 8.42071 6.41849 8.26471 5.86649 8.13271C5.31449 8.00071 4.76249 7.86271 4.21049 7.71871C3.65849 7.56271 3.14849 7.35871 2.68049 7.10671C2.22449 6.85471 1.85249 6.52471 1.56449 6.11671C1.28849 5.69671 1.15049 5.15071 1.15049 4.47871C1.15049 3.85471 1.31249 3.28471 1.63649 2.76871C1.97249 2.24071 2.48249 1.82071 3.16649 1.50871C3.85049 1.18471 4.72649 1.02271 5.79449 1.02271C6.50249 1.02271 7.20449 1.12471 7.90049 1.32871C8.59649 1.52071 9.19649 1.79071 9.70049 2.13871L9.25049 3.20071C8.71049 2.84071 8.13449 2.57671 7.52249 2.40871C6.92249 2.24071 6.34049 2.15671 5.77649 2.15671C5.02049 2.15671 4.39649 2.25871 3.90449 2.46271C3.41249 2.66671 3.04649 2.94271 2.80649 3.29071C2.57849 3.62671 2.46449 4.01071 2.46449 4.44271C2.46449 4.93471 2.60249 5.33071 2.87849 5.63071C3.16649 5.93071 3.53849 6.16471 3.99449 6.33271C4.46249 6.50071 4.97249 6.65071 5.52449 6.78271C6.07649 6.91471 6.62249 7.05871 7.16249 7.21471C7.71449 7.37071 8.21849 7.57471 8.67449 7.82671C9.14249 8.06671 9.51449 8.39071 9.79049 8.79871C10.0785 9.20671 10.2225 9.74071 10.2225 10.4007C10.2225 11.0127 10.0545 11.5827 9.71849 12.1107C9.38249 12.6267 8.86649 13.0467 8.17049 13.3707C7.48649 13.6827 6.60449 13.8387 5.52449 13.8387ZM12.8547 13.7307V0.374712H14.1327V13.7307H12.8547ZM21.7027 13.8207C20.7187 13.8207 19.8547 13.6167 19.1107 13.2087C18.3667 12.7887 17.7847 12.2187 17.3647 11.4987C16.9447 10.7667 16.7347 9.93271 16.7347 8.99671C16.7347 8.06071 16.9327 7.23271 17.3287 6.51271C17.7367 5.79271 18.2887 5.22871 18.9847 4.82071C19.6927 4.40071 20.4847 4.19071 21.3607 4.19071C22.2487 4.19071 23.0347 4.39471 23.7187 4.80271C24.4147 5.19871 24.9607 5.76271 25.3567 6.49471C25.7527 7.21471 25.9507 8.04871 25.9507 8.99671C25.9507 9.05671 25.9447 9.12271 25.9327 9.19471C25.9327 9.25471 25.9327 9.32071 25.9327 9.39271H17.7067V8.43871H25.2487L24.7447 8.81671C24.7447 8.13271 24.5947 7.52671 24.2947 6.99871C24.0067 6.45871 23.6107 6.03871 23.1067 5.73871C22.6027 5.43871 22.0207 5.28871 21.3607 5.28871C20.7127 5.28871 20.1307 5.43871 19.6147 5.73871C19.0987 6.03871 18.6967 6.45871 18.4087 6.99871C18.1207 7.53871 17.9767 8.15671 17.9767 8.85271V9.05071C17.9767 9.77071 18.1327 10.4067 18.4447 10.9587C18.7687 11.4987 19.2127 11.9247 19.7767 12.2367C20.3527 12.5367 21.0067 12.6867 21.7387 12.6867C22.3147 12.6867 22.8487 12.5847 23.3407 12.3807C23.8447 12.1767 24.2767 11.8647 24.6367 11.4447L25.3567 12.2727C24.9367 12.7767 24.4087 13.1607 23.7727 13.4247C23.1487 13.6887 22.4587 13.8207 21.7027 13.8207ZM32.566 13.8207C31.582 13.8207 30.718 13.6167 29.974 13.2087C29.23 12.7887 28.648 12.2187 28.228 11.4987C27.808 10.7667 27.598 9.93271 27.598 8.99671C27.598 8.06071 27.796 7.23271 28.192 6.51271C28.6 5.79271 29.152 5.22871 29.848 4.82071C30.556 4.40071 31.348 4.19071 32.224 4.19071C33.112 4.19071 33.898 4.39471 34.582 4.80271C35.278 5.19871 35.824 5.76271 36.22 6.49471C36.616 7.21471 36.814 8.04871 36.814 8.99671C36.814 9.05671 36.808 9.12271 36.796 9.19471C36.796 9.25471 36.796 9.32071 36.796 9.39271H28.57V8.43871H36.112L35.608 8.81671C35.608 8.13271 35.458 7.52671 35.158 6.99871C34.87 6.45871 34.474 6.03871 33.97 5.73871C33.466 5.43871 32.884 5.28871 32.224 5.28871C31.576 5.28871 30.994 5.43871 30.478 5.73871C29.962 6.03871 29.56 6.45871 29.272 6.99871C28.984 7.53871 28.84 8.15671 28.84 8.85271V9.05071C28.84 9.77071 28.996 10.4067 29.308 10.9587C29.632 11.4987 30.076 11.9247 30.64 12.2367C31.216 12.5367 31.87 12.6867 32.602 12.6867C33.178 12.6867 33.712 12.5847 34.204 12.3807C34.708 12.1767 35.14 11.8647 35.5 11.4447L36.22 12.2727C35.8 12.7767 35.272 13.1607 34.636 13.4247C34.012 13.6887 33.322 13.8207 32.566 13.8207ZM44.2933 13.8207C43.4773 13.8207 42.7393 13.6347 42.0793 13.2627C41.4193 12.8787 40.8913 12.3327 40.4953 11.6247C40.1113 10.9047 39.9193 10.0287 39.9193 8.99671C39.9193 7.96471 40.1113 7.09471 40.4953 6.38671C40.8793 5.66671 41.4013 5.12071 42.0613 4.74871C42.7213 4.37671 43.4653 4.19071 44.2933 4.19071C45.1933 4.19071 45.9973 4.39471 46.7053 4.80271C47.4253 5.19871 47.9893 5.76271 48.3973 6.49471C48.8053 7.21471 49.0093 8.04871 49.0093 8.99671C49.0093 9.95671 48.8053 10.7967 48.3973 11.5167C47.9893 12.2367 47.4253 12.8007 46.7053 13.2087C45.9973 13.6167 45.1933 13.8207 44.2933 13.8207ZM39.4153 17.2227V4.28071H40.6393V7.12471L40.5133 9.01471L40.6933 10.9227V17.2227H39.4153ZM44.2033 12.6867C44.8753 12.6867 45.4753 12.5367 46.0033 12.2367C46.5313 11.9247 46.9513 11.4927 47.2633 10.9407C47.5753 10.3767 47.7313 9.72871 47.7313 8.99671C47.7313 8.26471 47.5753 7.62271 47.2633 7.07071C46.9513 6.51871 46.5313 6.08671 46.0033 5.77471C45.4753 5.46271 44.8753 5.30671 44.2033 5.30671C43.5313 5.30671 42.9253 5.46271 42.3853 5.77471C41.8573 6.08671 41.4373 6.51871 41.1253 7.07071C40.8253 7.62271 40.6753 8.26471 40.6753 8.99671C40.6753 9.72871 40.8253 10.3767 41.1253 10.9407C41.4373 11.4927 41.8573 11.9247 42.3853 12.2367C42.9253 12.5367 43.5313 12.6867 44.2033 12.6867ZM51.8845 13.7307V1.13071H52.9825L58.7425 10.9587H58.1665L63.8725 1.13071H64.9705V13.7307H63.6925V3.12871H63.9985L58.7425 12.1287H58.1125L52.8205 3.12871H53.1625V13.7307H51.8845ZM72.8199 13.8207C71.8359 13.8207 70.9719 13.6167 70.2279 13.2087C69.4839 12.7887 68.9019 12.2187 68.4819 11.4987C68.0619 10.7667 67.8519 9.93271 67.8519 8.99671C67.8519 8.06071 68.0499 7.23271 68.4459 6.51271C68.8539 5.79271 69.4059 5.22871 70.1019 4.82071C70.8099 4.40071 71.6019 4.19071 72.4779 4.19071C73.3659 4.19071 74.1519 4.39471 74.8359 4.80271C75.5319 5.19871 76.0779 5.76271 76.4739 6.49471C76.8699 7.21471 77.0679 8.04871 77.0679 8.99671C77.0679 9.05671 77.0619 9.12271 77.0499 9.19471C77.0499 9.25471 77.0499 9.32071 77.0499 9.39271H68.8239V8.43871H76.3659L75.8619 8.81671C75.8619 8.13271 75.7119 7.52671 75.4119 6.99871C75.1239 6.45871 74.7279 6.03871 74.2239 5.73871C73.7199 5.43871 73.1379 5.28871 72.4779 5.28871C71.8299 5.28871 71.2479 5.43871 70.7319 5.73871C70.2159 6.03871 69.8139 6.45871 69.5259 6.99871C69.2379 7.53871 69.0939 8.15671 69.0939 8.85271V9.05071C69.0939 9.77071 69.2499 10.4067 69.5619 10.9587C69.8859 11.4987 70.3299 11.9247 70.8939 12.2367C71.4699 12.5367 72.1239 12.6867 72.8559 12.6867C73.4319 12.6867 73.9659 12.5847 74.4579 12.3807C74.9619 12.1767 75.3939 11.8647 75.7539 11.4447L76.4739 12.2727C76.0539 12.7767 75.5259 13.1607 74.8899 13.4247C74.2659 13.6887 73.5759 13.8207 72.8199 13.8207ZM83.4312 13.8207C82.5312 13.8207 81.7212 13.6167 81.0012 13.2087C80.2932 12.8007 79.7352 12.2367 79.3272 11.5167C78.9192 10.7847 78.7152 9.94471 78.7152 8.99671C78.7152 8.03671 78.9192 7.19671 79.3272 6.47671C79.7352 5.75671 80.2932 5.19871 81.0012 4.80271C81.7212 4.39471 82.5312 4.19071 83.4312 4.19071C84.2592 4.19071 84.9972 4.37671 85.6452 4.74871C86.3052 5.12071 86.8272 5.66671 87.2112 6.38671C87.6072 7.09471 87.8052 7.96471 87.8052 8.99671C87.8052 10.0167 87.6132 10.8867 87.2292 11.6067C86.8452 12.3267 86.3232 12.8787 85.6632 13.2627C85.0152 13.6347 84.2712 13.8207 83.4312 13.8207ZM83.5212 12.6867C84.1932 12.6867 84.7932 12.5367 85.3212 12.2367C85.8612 11.9247 86.2812 11.4927 86.5812 10.9407C86.8932 10.3767 87.0492 9.72871 87.0492 8.99671C87.0492 8.25271 86.8932 7.60471 86.5812 7.05271C86.2812 6.50071 85.8612 6.07471 85.3212 5.77471C84.7932 5.46271 84.1932 5.30671 83.5212 5.30671C82.8612 5.30671 82.2672 5.46271 81.7392 5.77471C81.2112 6.07471 80.7912 6.50071 80.4792 7.05271C80.1672 7.60471 80.0112 8.25271 80.0112 8.99671C80.0112 9.72871 80.1672 10.3767 80.4792 10.9407C80.7912 11.4927 81.2112 11.9247 81.7392 12.2367C82.2672 12.5367 82.8612 12.6867 83.5212 12.6867ZM87.0852 13.7307V10.8867L87.2112 8.97871L87.0312 7.07071V0.374712H88.3092V13.7307H87.0852ZM91.8684 13.7307V4.28071H93.1464V13.7307H91.8684ZM92.5164 2.19271C92.2524 2.19271 92.0304 2.10271 91.8504 1.92271C91.6704 1.74271 91.5804 1.52671 91.5804 1.27471C91.5804 1.02271 91.6704 0.812712 91.8504 0.644712C92.0304 0.464712 92.2524 0.374712 92.5164 0.374712C92.7804 0.374712 93.0024 0.458712 93.1824 0.626712C93.3624 0.794712 93.4524 1.00471 93.4524 1.25671C93.4524 1.52071 93.3624 1.74271 93.1824 1.92271C93.0144 2.10271 92.7924 2.19271 92.5164 2.19271ZM102.624 13.7307V11.6427L102.57 11.3007V7.80871C102.57 7.00471 102.342 6.38671 101.886 5.95471C101.442 5.52271 100.776 5.30671 99.8884 5.30671C99.2764 5.30671 98.6944 5.40871 98.1424 5.61271C97.5904 5.81671 97.1224 6.08671 96.7384 6.42271L96.1624 5.46871C96.6424 5.06071 97.2184 4.74871 97.8904 4.53271C98.5624 4.30471 99.2704 4.19071 100.014 4.19071C101.238 4.19071 102.18 4.49671 102.84 5.10871C103.512 5.70871 103.848 6.62671 103.848 7.86271V13.7307H102.624ZM99.3664 13.8207C98.6584 13.8207 98.0404 13.7067 97.5124 13.4787C96.9964 13.2387 96.6004 12.9147 96.3244 12.5067C96.0484 12.0867 95.9104 11.6067 95.9104 11.0667C95.9104 10.5747 96.0244 10.1307 96.2524 9.73471C96.4924 9.32671 96.8764 9.00271 97.4044 8.76271C97.9444 8.51071 98.6644 8.38471 99.5644 8.38471H102.822V9.33871H99.6004C98.6884 9.33871 98.0524 9.50071 97.6924 9.82471C97.3444 10.1487 97.1704 10.5507 97.1704 11.0307C97.1704 11.5707 97.3804 12.0027 97.8004 12.3267C98.2204 12.6507 98.8084 12.8127 99.5644 12.8127C100.284 12.8127 100.902 12.6507 101.418 12.3267C101.946 11.9907 102.33 11.5107 102.57 10.8867L102.858 11.7687C102.618 12.3927 102.198 12.8907 101.598 13.2627C101.01 13.6347 100.266 13.8207 99.3664 13.8207Z" fill="#69BDAE"/>
</svg>
