<svg width="47" height="14" viewBox="0 0 47 14" fill="none" xmlns="http://www.w3.org/2000/svg">
<path d="M5.30179 13.3387C4.36579 13.3387 3.46579 13.1887 2.60179 12.8887C1.74979 12.5767 1.08979 12.1807 0.621791 11.7007L1.14379 10.6747C1.58779 11.1067 2.18179 11.4727 2.92579 11.7727C3.68179 12.0607 4.47379 12.2047 5.30179 12.2047C6.09379 12.2047 6.73579 12.1087 7.22779 11.9167C7.73179 11.7127 8.09779 11.4427 8.32579 11.1067C8.56579 10.7707 8.68579 10.3987 8.68579 9.99071C8.68579 9.49871 8.54179 9.10271 8.25379 8.80271C7.97779 8.50271 7.61179 8.26871 7.15579 8.10071C6.69979 7.92071 6.19579 7.76471 5.64379 7.63271C5.09179 7.50071 4.53979 7.36271 3.98779 7.21871C3.43579 7.06271 2.92579 6.85871 2.45779 6.60671C2.00179 6.35471 1.62979 6.02471 1.34179 5.61671C1.06579 5.19671 0.927791 4.65071 0.927791 3.97871C0.927791 3.35471 1.08979 2.78471 1.41379 2.26871C1.74979 1.74071 2.25979 1.32071 2.94379 1.00871C3.62779 0.684712 4.50379 0.522712 5.57179 0.522712C6.27979 0.522712 6.98179 0.624712 7.67779 0.828713C8.37379 1.02071 8.97379 1.29071 9.47779 1.63871L9.02779 2.70071C8.48779 2.34071 7.91179 2.07671 7.29979 1.90871C6.69979 1.74071 6.11779 1.65671 5.55379 1.65671C4.79779 1.65671 4.17379 1.75871 3.68179 1.96271C3.18979 2.16671 2.82379 2.44271 2.58379 2.79071C2.35579 3.12671 2.24179 3.51071 2.24179 3.94271C2.24179 4.43471 2.37979 4.83071 2.65579 5.13071C2.94379 5.43071 3.31579 5.66471 3.77179 5.83271C4.23979 6.00071 4.74979 6.15071 5.30179 6.28271C5.85379 6.41471 6.39979 6.55871 6.93979 6.71471C7.49179 6.87071 7.99579 7.07471 8.45179 7.32671C8.91979 7.56671 9.29179 7.89071 9.56779 8.29871C9.85579 8.70671 9.99979 9.24071 9.99979 9.90071C9.99979 10.5127 9.83179 11.0827 9.49579 11.6107C9.15979 12.1267 8.64379 12.5467 7.94779 12.8707C7.26379 13.1827 6.38179 13.3387 5.30179 13.3387ZM15.62 13.3207C14.732 13.3207 14.048 13.0807 13.568 12.6007C13.088 12.1207 12.848 11.4427 12.848 10.5667V1.69271H14.126V10.4947C14.126 11.0467 14.264 11.4727 14.54 11.7727C14.828 12.0727 15.236 12.2227 15.764 12.2227C16.328 12.2227 16.796 12.0607 17.168 11.7367L17.618 12.6547C17.366 12.8827 17.06 13.0507 16.7 13.1587C16.352 13.2667 15.992 13.3207 15.62 13.3207ZM11.156 4.84271V3.78071H17.006V4.84271H11.156ZM23.4625 13.3207C22.5505 13.3207 21.7285 13.1167 20.9965 12.7087C20.2765 12.2887 19.7065 11.7187 19.2865 10.9987C18.8665 10.2667 18.6565 9.43271 18.6565 8.49671C18.6565 7.54871 18.8665 6.71471 19.2865 5.99471C19.7065 5.27471 20.2765 4.71071 20.9965 4.30271C21.7165 3.89471 22.5385 3.69071 23.4625 3.69071C24.3985 3.69071 25.2265 3.89471 25.9465 4.30271C26.6785 4.71071 27.2485 5.27471 27.6565 5.99471C28.0765 6.71471 28.2865 7.54871 28.2865 8.49671C28.2865 9.43271 28.0765 10.2667 27.6565 10.9987C27.2485 11.7187 26.6785 12.2887 25.9465 12.7087C25.2145 13.1167 24.3865 13.3207 23.4625 13.3207ZM23.4625 12.1867C24.1465 12.1867 24.7525 12.0367 25.2805 11.7367C25.8085 11.4247 26.2225 10.9927 26.5225 10.4407C26.8345 9.87671 26.9905 9.22871 26.9905 8.49671C26.9905 7.75271 26.8345 7.10471 26.5225 6.55271C26.2225 6.00071 25.8085 5.57471 25.2805 5.27471C24.7525 4.96271 24.1525 4.80671 23.4805 4.80671C22.8085 4.80671 22.2085 4.96271 21.6805 5.27471C21.1525 5.57471 20.7325 6.00071 20.4205 6.55271C20.1085 7.10471 19.9525 7.75271 19.9525 8.49671C19.9525 9.22871 20.1085 9.87671 20.4205 10.4407C20.7325 10.9927 21.1525 11.4247 21.6805 11.7367C22.2085 12.0367 22.8025 12.1867 23.4625 12.1867ZM30.8957 13.2307V3.78071H32.1197V6.35471L31.9937 5.90471C32.2577 5.18471 32.7017 4.63871 33.3257 4.26671C33.9497 3.88271 34.7237 3.69071 35.6477 3.69071V4.93271C35.5997 4.93271 35.5517 4.93271 35.5037 4.93271C35.4557 4.92071 35.4077 4.91471 35.3597 4.91471C34.3637 4.91471 33.5837 5.22071 33.0197 5.83271C32.4557 6.43271 32.1737 7.29071 32.1737 8.40671V13.2307H30.8957ZM41.9058 13.3207C40.9218 13.3207 40.0578 13.1167 39.3138 12.7087C38.5698 12.2887 37.9878 11.7187 37.5678 10.9987C37.1478 10.2667 36.9378 9.43271 36.9378 8.49671C36.9378 7.56071 37.1358 6.73271 37.5318 6.01271C37.9398 5.29271 38.4918 4.72871 39.1878 4.32071C39.8958 3.90071 40.6878 3.69071 41.5638 3.69071C42.4518 3.69071 43.2378 3.89471 43.9218 4.30271C44.6178 4.69871 45.1638 5.26271 45.5598 5.99471C45.9558 6.71471 46.1538 7.54871 46.1538 8.49671C46.1538 8.55671 46.1478 8.62271 46.1358 8.69471C46.1358 8.75471 46.1358 8.82071 46.1358 8.89271H37.9098V7.93871H45.4518L44.9478 8.31671C44.9478 7.63271 44.7978 7.02671 44.4978 6.49871C44.2098 5.95871 43.8138 5.53871 43.3098 5.23871C42.8058 4.93871 42.2238 4.78871 41.5638 4.78871C40.9158 4.78871 40.3338 4.93871 39.8178 5.23871C39.3018 5.53871 38.8998 5.95871 38.6118 6.49871C38.3238 7.03871 38.1798 7.65671 38.1798 8.35271V8.55071C38.1798 9.27071 38.3358 9.90671 38.6478 10.4587C38.9718 10.9987 39.4158 11.4247 39.9798 11.7367C40.5558 12.0367 41.2098 12.1867 41.9418 12.1867C42.5178 12.1867 43.0518 12.0847 43.5438 11.8807C44.0478 11.6767 44.4798 11.3647 44.8398 10.9447L45.5598 11.7727C45.1398 12.2767 44.6118 12.6607 43.9758 12.9247C43.3518 13.1887 42.6618 13.3207 41.9058 13.3207Z" fill="#69BDAE"/>
</svg>
