<svg width="36" height="24" viewBox="0 0 36 24" fill="none" xmlns="http://www.w3.org/2000/svg">
<path d="M1.48828 12.3781C1.48828 12.3781 11.1617 18.9786 17.1319 22.8822M1.48828 12.3781C1.35972 11.2579 1.57903 9.55058 2.62321 9.00142M1.48828 12.3781L17.1319 22.8822M17.1319 22.8822C17.7244 22.8267 18.2129 22.66 18.6066 22.4098M2.62321 9.00142C3.27579 8.65821 4.25056 8.76735 5.66395 9.75486C5.74119 9.80882 5.80959 9.87568 5.86909 9.94873C7.81319 12.3351 10.7579 12.9052 11.7311 13.1183C11.7777 13.1285 11.8237 13.1353 11.8712 13.1392C12.2041 13.1661 12.5159 13.1974 12.8082 13.2324M2.62321 9.00142L16.9927 1.72152C17.0356 1.69978 17.0767 1.67466 17.117 1.64844C17.7475 1.23839 19.2132 0.763965 20.5061 1.8867C22.1756 3.33655 21.8628 4.84505 27.4717 5.55957C27.9345 5.61853 28.3711 5.69819 28.7826 5.79497M12.8082 13.2324C12.9065 13.2442 13.0026 13.2564 13.0965 13.269C13.1814 13.2805 13.2645 13.2922 13.3459 13.3042M12.8082 13.2324L22.1743 8.80545C22.2729 8.75884 22.3906 8.80094 22.4373 8.89953V8.89953C22.4844 8.99894 22.4413 9.11766 22.3414 9.16366L13.3459 13.3042M13.3459 13.3042C16.2102 13.7282 16.985 14.5461 17.7257 15.0919C19.9982 16.7664 20.873 20.9701 18.6066 22.4098M28.7826 5.79497L25.2779 7.41856C25.1519 7.47695 25.1093 7.63508 25.189 7.74888V7.74888C25.253 7.84031 25.3747 7.87037 25.4739 7.81923L29.1967 5.90033M28.7826 5.79497C28.9235 5.82813 29.0616 5.8633 29.1967 5.90033M29.1967 5.90033C32.49 6.80315 33.7952 7.90851 34.4382 9.83726C34.6103 10.563 34.7294 12.2332 33.8947 13.3001C33.8313 13.3811 33.7501 13.4459 33.6616 13.4983L18.6066 22.4098" stroke="#77C7A4"/>
</svg>
