<svg width="46" height="14" viewBox="0 0 46 14" fill="none" xmlns="http://www.w3.org/2000/svg">
<path d="M5.08356 13.108C4.14756 13.108 3.24756 12.958 2.38356 12.658C1.53156 12.346 0.87156 11.95 0.40356 11.47L0.92556 10.444C1.36956 10.876 1.96356 11.242 2.70756 11.542C3.46356 11.83 4.25556 11.974 5.08356 11.974C5.87556 11.974 6.51756 11.878 7.00956 11.686C7.51356 11.482 7.87956 11.212 8.10756 10.876C8.34756 10.54 8.46756 10.168 8.46756 9.76C8.46756 9.268 8.32356 8.872 8.03556 8.572C7.75956 8.272 7.39356 8.038 6.93756 7.87C6.48156 7.69 5.97756 7.534 5.42556 7.402C4.87356 7.27 4.32156 7.132 3.76956 6.988C3.21756 6.832 2.70756 6.628 2.23956 6.376C1.78356 6.124 1.41156 5.794 1.12356 5.386C0.84756 4.966 0.70956 4.42 0.70956 3.748C0.70956 3.124 0.87156 2.554 1.19556 2.038C1.53156 1.51 2.04156 1.09 2.72556 0.778C3.40956 0.454 4.28556 0.291999 5.35356 0.291999C6.06156 0.291999 6.76356 0.394 7.45956 0.598C8.15556 0.789999 8.75556 1.06 9.25956 1.408L8.80956 2.47C8.26956 2.11 7.69356 1.846 7.08156 1.678C6.48156 1.51 5.89956 1.426 5.33556 1.426C4.57956 1.426 3.95556 1.528 3.46356 1.732C2.97156 1.936 2.60556 2.212 2.36556 2.56C2.13756 2.896 2.02356 3.28 2.02356 3.712C2.02356 4.204 2.16156 4.6 2.43756 4.9C2.72556 5.2 3.09756 5.434 3.55356 5.602C4.02156 5.77 4.53156 5.92 5.08356 6.052C5.63556 6.184 6.18156 6.328 6.72156 6.484C7.27356 6.64 7.77756 6.844 8.23356 7.096C8.70156 7.336 9.07356 7.66 9.34956 8.068C9.63756 8.476 9.78156 9.01 9.78156 9.67C9.78156 10.282 9.61356 10.852 9.27756 11.38C8.94156 11.896 8.42556 12.316 7.72956 12.64C7.04556 12.952 6.16356 13.108 5.08356 13.108ZM15.4018 13.09C14.5138 13.09 13.8298 12.85 13.3498 12.37C12.8698 11.89 12.6298 11.212 12.6298 10.336V1.462H13.9078V10.264C13.9078 10.816 14.0458 11.242 14.3218 11.542C14.6098 11.842 15.0178 11.992 15.5458 11.992C16.1098 11.992 16.5778 11.83 16.9498 11.506L17.3998 12.424C17.1478 12.652 16.8418 12.82 16.4818 12.928C16.1338 13.036 15.7738 13.09 15.4018 13.09ZM10.9378 4.612V3.55H16.7878V4.612H10.9378ZM23.2443 13.09C22.3323 13.09 21.5103 12.886 20.7783 12.478C20.0583 12.058 19.4883 11.488 19.0683 10.768C18.6483 10.036 18.4383 9.202 18.4383 8.266C18.4383 7.318 18.6483 6.484 19.0683 5.764C19.4883 5.044 20.0583 4.48 20.7783 4.072C21.4983 3.664 22.3203 3.46 23.2443 3.46C24.1803 3.46 25.0083 3.664 25.7283 4.072C26.4603 4.48 27.0303 5.044 27.4383 5.764C27.8583 6.484 28.0683 7.318 28.0683 8.266C28.0683 9.202 27.8583 10.036 27.4383 10.768C27.0303 11.488 26.4603 12.058 25.7283 12.478C24.9963 12.886 24.1683 13.09 23.2443 13.09ZM23.2443 11.956C23.9283 11.956 24.5343 11.806 25.0623 11.506C25.5903 11.194 26.0043 10.762 26.3043 10.21C26.6163 9.646 26.7723 8.998 26.7723 8.266C26.7723 7.522 26.6163 6.874 26.3043 6.322C26.0043 5.77 25.5903 5.344 25.0623 5.044C24.5343 4.732 23.9343 4.576 23.2623 4.576C22.5903 4.576 21.9903 4.732 21.4623 5.044C20.9343 5.344 20.5143 5.77 20.2023 6.322C19.8903 6.874 19.7343 7.522 19.7343 8.266C19.7343 8.998 19.8903 9.646 20.2023 10.21C20.5143 10.762 20.9343 11.194 21.4623 11.506C21.9903 11.806 22.5843 11.956 23.2443 11.956ZM30.6775 13V3.55H31.9015V6.124L31.7755 5.674C32.0395 4.954 32.4835 4.408 33.1075 4.036C33.7315 3.652 34.5055 3.46 35.4295 3.46V4.702C35.3815 4.702 35.3335 4.702 35.2855 4.702C35.2375 4.69 35.1895 4.684 35.1415 4.684C34.1455 4.684 33.3655 4.99 32.8015 5.602C32.2375 6.202 31.9555 7.06 31.9555 8.176V13H30.6775ZM41.6875 13.09C40.7035 13.09 39.8395 12.886 39.0955 12.478C38.3515 12.058 37.7695 11.488 37.3495 10.768C36.9295 10.036 36.7195 9.202 36.7195 8.266C36.7195 7.33 36.9175 6.502 37.3135 5.782C37.7215 5.062 38.2735 4.498 38.9695 4.09C39.6775 3.67 40.4695 3.46 41.3455 3.46C42.2335 3.46 43.0195 3.664 43.7035 4.072C44.3995 4.468 44.9455 5.032 45.3415 5.764C45.7375 6.484 45.9355 7.318 45.9355 8.266C45.9355 8.326 45.9295 8.392 45.9175 8.464C45.9175 8.524 45.9175 8.59 45.9175 8.662H37.6915V7.708H45.2335L44.7295 8.086C44.7295 7.402 44.5795 6.796 44.2795 6.268C43.9915 5.728 43.5955 5.308 43.0915 5.008C42.5875 4.708 42.0055 4.558 41.3455 4.558C40.6975 4.558 40.1155 4.708 39.5995 5.008C39.0835 5.308 38.6815 5.728 38.3935 6.268C38.1055 6.808 37.9615 7.426 37.9615 8.122V8.32C37.9615 9.04 38.1175 9.676 38.4295 10.228C38.7535 10.768 39.1975 11.194 39.7615 11.506C40.3375 11.806 40.9915 11.956 41.7235 11.956C42.2995 11.956 42.8335 11.854 43.3255 11.65C43.8295 11.446 44.2615 11.134 44.6215 10.714L45.3415 11.542C44.9215 12.046 44.3935 12.43 43.7575 12.694C43.1335 12.958 42.4435 13.09 41.6875 13.09Z" fill="#5B5858"/>
</svg>
