<svg width="35" height="24" viewBox="0 0 35 24" fill="none" xmlns="http://www.w3.org/2000/svg">
<path d="M1.0484 12.0573C1.0484 12.0573 10.7219 18.6578 16.692 22.5614M1.0484 12.0573C0.919843 10.9371 1.13915 9.22978 2.18333 8.68062M1.0484 12.0573L16.692 22.5614M16.692 22.5614C17.2845 22.5059 17.773 22.3392 18.1668 22.089M2.18333 8.68062C2.83591 8.33741 3.81068 8.44655 5.22407 9.43406C5.3013 9.48802 5.36971 9.55488 5.42921 9.62792C7.3733 12.0143 10.318 12.5844 11.2912 12.7975C11.3378 12.8077 11.3838 12.8145 11.4313 12.8184C11.7642 12.8453 12.076 12.8766 12.3684 12.9116M2.18333 8.68062L16.5529 1.40072C16.5958 1.37898 16.6368 1.35386 16.6771 1.32764C17.3076 0.917587 18.7733 0.443164 20.0662 1.5659C21.7357 3.01575 21.4229 4.52425 27.0318 5.23877C27.4946 5.29773 27.9313 5.37739 28.3427 5.47417M12.3684 12.9116C12.4666 12.9234 12.5627 12.9356 12.6566 12.9482C12.7415 12.9596 12.8246 12.9714 12.906 12.9834M12.3684 12.9116L21.7344 8.48465C21.833 8.43804 21.9507 8.48014 21.9974 8.57873V8.57873C22.0445 8.67813 22.0014 8.79686 21.9015 8.84285L12.906 12.9834M12.906 12.9834C15.7703 13.4074 16.5451 14.2253 17.2858 14.7711C19.5584 16.4456 20.4331 20.6493 18.1668 22.089M28.3427 5.47417L24.838 7.09776C24.712 7.15614 24.6694 7.31428 24.7491 7.42807V7.42807C24.8131 7.51951 24.9348 7.54957 25.034 7.49843L28.7568 5.57953M28.3427 5.47417C28.4837 5.50733 28.6217 5.5425 28.7568 5.57953M28.7568 5.57953C32.0502 6.48235 33.3553 7.58771 33.9984 9.51646C34.1704 10.2422 34.2895 11.9124 33.4548 12.9793C33.3915 13.0603 33.3102 13.1251 33.2217 13.1775L18.1668 22.089" stroke="#414141"/>
</svg>
