<svg width="221" height="71" viewBox="0 0 221 71" fill="none" xmlns="http://www.w3.org/2000/svg">
<path d="M12 46.6173C94.5791 35.8991 125.077 35.8904 210 46.5572C145.719 40.6952 81.4393 40.1885 12 46.6173Z" fill="#69BDAE"/>
<path d="M73.9265 34.35C72.0132 34.35 70.1815 34.0817 68.4315 33.545C66.6815 32.985 65.2932 32.2733 64.2665 31.41L65.8415 27.875C66.8215 28.645 68.0348 29.2867 69.4815 29.8C70.9282 30.3133 72.4098 30.57 73.9265 30.57C75.2098 30.57 76.2482 30.43 77.0415 30.15C77.8348 29.87 78.4182 29.4967 78.7915 29.03C79.1648 28.54 79.3515 27.9917 79.3515 27.385C79.3515 26.6383 79.0832 26.0433 78.5465 25.6C78.0098 25.1333 77.3098 24.7717 76.4465 24.515C75.6065 24.235 74.6615 23.9783 73.6115 23.745C72.5848 23.5117 71.5465 23.2433 70.4965 22.94C69.4698 22.6133 68.5248 22.205 67.6615 21.715C66.8215 21.2017 66.1332 20.525 65.5965 19.685C65.0598 18.845 64.7915 17.7717 64.7915 16.465C64.7915 15.135 65.1415 13.9217 65.8415 12.825C66.5648 11.705 67.6498 10.8183 69.0965 10.165C70.5665 9.48833 72.4215 9.15 74.6615 9.15C76.1315 9.15 77.5898 9.33667 79.0365 9.71C80.4832 10.0833 81.7432 10.62 82.8165 11.32L81.3815 14.855C80.2848 14.2017 79.1532 13.7233 77.9865 13.42C76.8198 13.0933 75.6998 12.93 74.6265 12.93C73.3665 12.93 72.3398 13.0817 71.5465 13.385C70.7765 13.6883 70.2048 14.085 69.8315 14.575C69.4815 15.065 69.3065 15.625 69.3065 16.255C69.3065 17.0017 69.5632 17.6083 70.0765 18.075C70.6132 18.5183 71.3015 18.8683 72.1415 19.125C73.0048 19.3817 73.9615 19.6383 75.0115 19.895C76.0615 20.1283 77.0998 20.3967 78.1265 20.7C79.1765 21.0033 80.1215 21.4 80.9615 21.89C81.8248 22.38 82.5132 23.045 83.0265 23.885C83.5632 24.725 83.8315 25.7867 83.8315 27.07C83.8315 28.3767 83.4698 29.59 82.7465 30.71C82.0465 31.8067 80.9615 32.6933 79.4915 33.37C78.0215 34.0233 76.1665 34.35 73.9265 34.35ZM94.9582 34.245C92.9049 34.245 91.3182 33.72 90.1982 32.67C89.0782 31.5967 88.5182 30.0217 88.5182 27.945V11.18H92.8932V27.84C92.8932 28.7267 93.1149 29.415 93.5582 29.905C94.0249 30.395 94.6666 30.64 95.4832 30.64C96.4632 30.64 97.2799 30.3833 97.9332 29.87L99.1582 32.985C98.6449 33.405 98.0149 33.72 97.2682 33.93C96.5216 34.14 95.7516 34.245 94.9582 34.245ZM85.4382 18.95V15.45H97.8982V18.95H85.4382ZM110.542 34.245C108.629 34.245 106.925 33.8367 105.432 33.02C103.939 32.18 102.76 31.0367 101.897 29.59C101.034 28.1433 100.602 26.4983 100.602 24.655C100.602 22.7883 101.034 21.1433 101.897 19.72C102.76 18.2733 103.939 17.1417 105.432 16.325C106.925 15.5083 108.629 15.1 110.542 15.1C112.479 15.1 114.194 15.5083 115.687 16.325C117.204 17.1417 118.382 18.2617 119.222 19.685C120.085 21.1083 120.517 22.765 120.517 24.655C120.517 26.4983 120.085 28.1433 119.222 29.59C118.382 31.0367 117.204 32.18 115.687 33.02C114.194 33.8367 112.479 34.245 110.542 34.245ZM110.542 30.5C111.615 30.5 112.572 30.2667 113.412 29.8C114.252 29.3333 114.905 28.6567 115.372 27.77C115.862 26.8833 116.107 25.845 116.107 24.655C116.107 23.4417 115.862 22.4033 115.372 21.54C114.905 20.6533 114.252 19.9767 113.412 19.51C112.572 19.0433 111.627 18.81 110.577 18.81C109.504 18.81 108.547 19.0433 107.707 19.51C106.89 19.9767 106.237 20.6533 105.747 21.54C105.257 22.4033 105.012 23.4417 105.012 24.655C105.012 25.845 105.257 26.8833 105.747 27.77C106.237 28.6567 106.89 29.3333 107.707 29.8C108.547 30.2667 109.492 30.5 110.542 30.5ZM124.701 34V15.31H128.866V20.455L128.376 18.95C128.936 17.69 129.811 16.7333 131.001 16.08C132.214 15.4267 133.719 15.1 135.516 15.1V19.265C135.329 19.2183 135.154 19.195 134.991 19.195C134.827 19.1717 134.664 19.16 134.501 19.16C132.844 19.16 131.526 19.65 130.546 20.63C129.566 21.5867 129.076 23.0217 129.076 24.935V34H124.701ZM147.841 34.245C145.764 34.245 143.944 33.8367 142.381 33.02C140.841 32.18 139.639 31.0367 138.776 29.59C137.936 28.1433 137.516 26.4983 137.516 24.655C137.516 22.7883 137.924 21.1433 138.741 19.72C139.581 18.2733 140.724 17.1417 142.171 16.325C143.641 15.5083 145.309 15.1 147.176 15.1C148.996 15.1 150.618 15.4967 152.041 16.29C153.464 17.0833 154.584 18.2033 155.401 19.65C156.218 21.0967 156.626 22.8 156.626 24.76C156.626 24.9467 156.614 25.1567 156.591 25.39C156.591 25.6233 156.579 25.845 156.556 26.055H140.981V23.15H154.246L152.531 24.06C152.554 22.9867 152.333 22.0417 151.866 21.225C151.399 20.4083 150.758 19.7667 149.941 19.3C149.148 18.8333 148.226 18.6 147.176 18.6C146.103 18.6 145.158 18.8333 144.341 19.3C143.548 19.7667 142.918 20.42 142.451 21.26C142.008 22.0767 141.786 23.045 141.786 24.165V24.865C141.786 25.985 142.043 26.9767 142.556 27.84C143.069 28.7033 143.793 29.3683 144.726 29.835C145.659 30.3017 146.733 30.535 147.946 30.535C148.996 30.535 149.941 30.3717 150.781 30.045C151.621 29.7183 152.368 29.205 153.021 28.505L155.366 31.2C154.526 32.18 153.464 32.9383 152.181 33.475C150.921 33.9883 149.474 34.245 147.841 34.245Z" fill="black"/>
</svg>
