<svg width="283" height="165" viewBox="0 0 283 165" fill="none" xmlns="http://www.w3.org/2000/svg">
<rect width="283" height="165" fill="#FFFBF5"/>
<path d="M72.7691 55.5V93H65.3191L65.1691 89.4H65.0691C63.0358 92.1333 60.4358 93.5 57.2691 93.5C54.2358 93.5 51.7525 92.3167 49.8191 89.95C47.8858 87.55 46.9191 84.2333 46.9191 80C46.9191 75.6667 47.8525 72.3333 49.7191 70C51.5858 67.6667 54.1025 66.5 57.2691 66.5C60.2691 66.5 62.7358 67.7167 64.6691 70.15H64.7691V55.5H72.7691ZM54.5691 80C54.5691 82.3333 55.0358 84.15 55.9691 85.45C56.9358 86.7167 58.1691 87.35 59.6691 87.35C61.2025 87.35 62.4358 86.7333 63.3691 85.5C64.3025 84.2667 64.7691 82.5167 64.7691 80.25V79.75C64.7691 77.5167 64.3025 75.7833 63.3691 74.55C62.4358 73.2833 61.2025 72.65 59.6691 72.65C58.0691 72.65 56.8191 73.2667 55.9191 74.5C55.0191 75.7333 54.5691 77.5667 54.5691 80Z" fill="#FFFBF5"/>
<path d="M74.1203 67H81.7203L81.7703 72H81.8703C84.7703 68.3333 88.737 66.5 93.7703 66.5V72.9C90.037 72.9 87.187 73.7 85.2203 75.3C83.2536 76.9 82.2703 79.0833 82.2703 81.85V93H74.1203V67ZM101.038 77.7H111.338C111.305 73.8667 109.605 71.95 106.238 71.95C104.705 71.95 103.488 72.45 102.588 73.45C101.688 74.4167 101.171 75.8333 101.038 77.7ZM101.088 82.65C101.321 84.2833 102.005 85.5667 103.138 86.5C104.305 87.4 105.805 87.85 107.638 87.85C110.105 87.85 112.521 87.25 114.888 86.05L116.638 91.5C113.671 92.8333 110.421 93.5 106.888 93.5C102.755 93.5 99.4212 92.2833 96.8879 89.85C94.3879 87.4167 93.1379 84.1333 93.1379 80C93.1379 75.8333 94.3046 72.55 96.6379 70.15C98.9712 67.7167 102.105 66.5 106.038 66.5C110.071 66.5 113.205 67.6667 115.438 70C117.671 72.3 118.788 75.6 118.788 79.9C118.788 80.9333 118.721 81.85 118.588 82.65H101.088ZM132.642 66.5C136.808 66.5 139.775 67.3 141.542 68.9C143.342 70.4667 144.242 73.05 144.242 76.65V86C144.242 88.4 144.492 90.7333 144.992 93H137.392C137.125 91.5 136.958 90.2833 136.892 89.35H136.792C135.892 90.6167 134.675 91.6333 133.142 92.4C131.642 93.1333 130.058 93.5 128.392 93.5C125.892 93.5 123.892 92.8 122.392 91.4C120.892 90 120.142 88.0833 120.142 85.65C120.142 82.7833 121.358 80.4833 123.792 78.75C126.258 77.0167 129.792 76.15 134.392 76.15H136.242V76.05C136.242 74.5833 135.942 73.5667 135.342 73C134.775 72.4333 133.758 72.15 132.292 72.15C128.892 72.15 125.642 72.9 122.542 74.4L121.492 68.75C124.858 67.25 128.575 66.5 132.642 66.5ZM127.442 84.9C127.442 85.8 127.708 86.5 128.242 87C128.808 87.5 129.558 87.75 130.492 87.75C132.158 87.75 133.525 87.2333 134.592 86.2C135.692 85.1667 136.242 83.85 136.242 82.25V81.05H134.392C132.125 81.05 130.392 81.4 129.192 82.1C128.025 82.8 127.442 83.7333 127.442 84.9ZM145.579 67H152.829L152.979 70.5H153.079C155.013 67.8333 157.296 66.5 159.929 66.5C161.529 66.5 162.829 66.8 163.829 67.4C164.829 68 165.729 69.0333 166.529 70.5H166.629C168.963 67.8333 171.579 66.5 174.479 66.5C177.313 66.5 179.363 67.2833 180.629 68.85C181.929 70.4167 182.579 73.0833 182.579 76.85V93H174.879V78.35C174.879 76.0167 174.646 74.4667 174.179 73.7C173.746 72.9333 172.929 72.55 171.729 72.55C170.696 72.55 169.813 73.1 169.079 74.2C168.346 75.2667 167.979 76.65 167.979 78.35V93H160.279V78.35C160.279 76.0167 160.063 74.4667 159.629 73.7C159.196 72.9333 158.379 72.55 157.179 72.55C156.146 72.55 155.263 73.1 154.529 74.2C153.796 75.2667 153.429 76.65 153.429 78.35V93H145.579V67Z" fill="#020202"/>
<path d="M187.239 70.15C189.605 67.7167 192.872 66.5 197.039 66.5C201.205 66.5 204.455 67.7167 206.789 70.15C209.155 72.55 210.339 75.8333 210.339 80C210.339 84.1667 209.155 87.4667 206.789 89.9C204.455 92.3 201.205 93.5 197.039 93.5C192.872 93.5 189.605 92.3 187.239 89.9C184.872 87.4667 183.689 84.1667 183.689 80C183.689 75.8333 184.872 72.55 187.239 70.15ZM197.039 87.65C200.639 87.65 202.439 85.1 202.439 80C202.439 74.9 200.639 72.35 197.039 72.35C193.405 72.35 191.589 74.9 191.589 80C191.589 85.1 193.405 87.65 197.039 87.65ZM211.175 67H218.575L218.775 70.6H218.875C219.842 69.3333 221.025 68.3333 222.425 67.6C223.858 66.8667 225.325 66.5 226.825 66.5C229.958 66.5 232.242 67.4167 233.675 69.25C235.108 71.0833 235.825 74.2167 235.825 78.65V93H227.925V79.5C227.925 76.8 227.642 75 227.075 74.1C226.508 73.1667 225.508 72.7 224.075 72.7C222.842 72.7 221.708 73.3667 220.675 74.7C219.675 76.0333 219.175 77.5833 219.175 79.35V93H211.175V67Z" fill="#69BDAE"/>
<path d="M81 91C82.2 89.8 82.5 87.8333 82.5 87H83V91.5H81V91Z" fill="#FFFBF5"/>
<path d="M143.086 89.9922C143.838 89.8557 144.5 89 144.5 87H145V90V90.5H143V90C143.029 90 143.058 89.9973 143.086 89.9922Z" fill="#FFFBF5"/>
<path d="M152.086 89.9922C152.838 89.8557 153.5 89 153.5 87H154V90V90.5H152V90C152 90 152.058 89.9973 152.086 89.9922Z" fill="#FFFBF5"/>
<path d="M167.086 90.9922C167.838 90.8557 168.5 90 168.5 88H169V91L167.086 90.9922Z" fill="#FFFBF5"/>
<path d="M57.3404 95.4C54.8071 95.4 52.5238 94.8333 50.4904 93.7C48.4571 92.5333 46.8404 90.9167 45.6404 88.85C44.4738 86.7833 43.8904 84.35 43.8904 81.55C43.8904 78.7167 44.4738 76.2667 45.6404 74.2C46.8404 72.1333 48.4571 70.5333 50.4904 69.4C52.5238 68.2667 54.8071 67.7 57.3404 67.7C59.6071 67.7 61.5904 68.2 63.2904 69.2C64.9904 70.2 66.3071 71.7167 67.2404 73.75C68.1738 75.7833 68.6404 78.3833 68.6404 81.55C68.6404 84.6833 68.1904 87.2833 67.2904 89.35C66.3904 91.3833 65.0904 92.9 63.3904 93.9C61.7238 94.9 59.7071 95.4 57.3404 95.4ZM58.6904 89C59.9571 89 61.1071 88.7 62.1404 88.1C63.1738 87.5 63.9904 86.65 64.5904 85.55C65.2238 84.4167 65.5404 83.0833 65.5404 81.55C65.5404 79.9833 65.2238 78.65 64.5904 77.55C63.9904 76.45 63.1738 75.6 62.1404 75C61.1071 74.4 59.9571 74.1 58.6904 74.1C57.3904 74.1 56.2238 74.4 55.1904 75C54.1571 75.6 53.3238 76.45 52.6904 77.55C52.0904 78.65 51.7904 79.9833 51.7904 81.55C51.7904 83.0833 52.0904 84.4167 52.6904 85.55C53.3238 86.65 54.1571 87.5 55.1904 88.1C56.2238 88.7 57.3904 89 58.6904 89ZM65.7404 95V89.5L65.8904 81.5L65.3904 73.55V57.9H73.1904V95H65.7404Z" fill="#020202"/>
<path d="M114 83.3333C117.84 82.8 119 79.3333 119 78H120V84H114V83.3333Z" fill="#FFFBF5"/>
<ellipse cx="141.5" cy="99" rx="129.5" ry="9" fill="#FFFBF5"/>
<path d="M71 91.5C73.4 90.7 73.6667 87.5 73.5 86H74V92H73.5H71V91.5Z" fill="#FFFBF5"/>
<path d="M41.352 94.8557C126.542 90.2737 158.004 90.2698 245.611 94.8287C179.298 92.3235 112.986 92.1073 41.352 94.8557Z" fill="#69BDAE"/>
<path d="M166 90.5C167.5 90 168 89.5 168 88H168.5V91H166V90.5Z" fill="#FFFBF5"/>
<path d="M182.649 87.9776L183.246 87.9177L183.843 87.8578L184.142 90.8428L181.157 91.1422L181.097 90.5452C182.482 89.9239 182.709 88.5746 182.649 87.9776Z" fill="#FFFBF5"/>
</svg>
